<svg width="242" height="83" viewBox="0 0 242 83" fill="none" 
    xmlns="http://www.w3.org/2000/svg">
    <path d="M9.25781 58.2266C9.25781 58.6172 9.16406 59.0078 8.97656 59.3984C8.78906 59.7734 8.54688 60.1328 8.25 60.4766C7.96875 60.8203 7.65625 61.1328 7.3125 61.4141C6.96875 61.6953 6.64844 61.9375 6.35156 62.1406C5.89844 62.4531 5.42188 62.7422 4.92188 63.0078C4.4375 63.2734 3.90625 63.4062 3.32812 63.4062C3.20312 63.4062 3.0625 63.3906 2.90625 63.3594C2.76562 63.3281 2.69531 63.2266 2.69531 63.0547C2.69531 62.8359 2.79688 62.7031 3 62.6562C3.04688 62.6406 3.10156 62.6328 3.16406 62.6328C3.22656 62.6328 3.28906 62.625 3.35156 62.6094C3.52344 62.5781 3.6875 62.5234 3.84375 62.4453C4.01562 62.3672 4.1875 62.2812 4.35938 62.1875C4.625 62.0156 4.96094 61.7734 5.36719 61.4609C5.77344 61.1484 6.17188 60.8047 6.5625 60.4297C6.95312 60.0547 7.28125 59.6719 7.54688 59.2812C7.82812 58.8906 7.96875 58.5234 7.96875 58.1797C7.96875 57.9609 7.85156 57.8516 7.61719 57.8516C7.52344 57.8516 7.42969 57.8672 7.33594 57.8984C7.24219 57.9297 7.14844 57.9609 7.05469 57.9922C6.30469 58.2422 5.61719 58.625 4.99219 59.1406C4.36719 59.6406 3.82812 60.2266 3.375 60.8984C2.92188 61.5703 2.5625 62.2891 2.29688 63.0547C2.04688 63.8203 1.92188 64.5859 1.92188 65.3516C1.92188 65.6016 1.9375 65.8906 1.96875 66.2188C2.01562 66.5312 2.09375 66.8281 2.20312 67.1094C2.32812 67.3906 2.49219 67.6328 2.69531 67.8359C2.89844 68.0234 3.16406 68.1172 3.49219 68.1172C3.61719 68.1172 3.73438 68.0938 3.84375 68.0469C3.95312 68.0156 4.0625 67.9688 4.17188 67.9062C4.59375 67.6719 4.98438 67.3594 5.34375 66.9688C5.70312 66.5625 6.02344 66.1562 6.30469 65.75C6.38281 65.6562 6.45312 65.5547 6.51562 65.4453C6.59375 65.3359 6.67188 65.2266 6.75 65.1172C6.79688 65.0391 6.875 65 6.98438 65C7.07812 65 7.16406 65.0312 7.24219 65.0938C7.33594 65.1562 7.38281 65.2422 7.38281 65.3516C7.38281 65.3828 7.36719 65.4297 7.33594 65.4922C7.14844 65.8359 6.91406 66.2188 6.63281 66.6406C6.35156 67.0469 6.03906 67.4297 5.69531 67.7891C5.35156 68.1484 4.97656 68.4453 4.57031 68.6797C4.17969 68.9297 3.76562 69.0547 3.32812 69.0547C2.84375 69.0547 2.4375 68.9141 2.10938 68.6328C1.79688 68.3672 1.54688 68.0391 1.35938 67.6484C1.17188 67.2422 1.03906 66.8125 0.960938 66.3594C0.882812 65.8906 0.84375 65.4688 0.84375 65.0938C0.84375 63.9062 1.09375 62.7734 1.59375 61.6953C2.09375 60.6016 2.76562 59.6406 3.60938 58.8125C3.85938 58.5625 4.14844 58.3125 4.47656 58.0625C4.80469 57.7969 5.14844 57.5625 5.50781 57.3594C5.88281 57.1406 6.25781 56.9688 6.63281 56.8438C7.02344 56.7031 7.39844 56.6328 7.75781 56.6328C8.21094 56.6328 8.57031 56.7891 8.83594 57.1016C9.11719 57.3984 9.25781 57.7734 9.25781 58.2266ZM19.5938 64.3438C19.1875 65.1719 18.7656 65.9141 18.3281 66.5703C17.8906 67.2109 17.3203 67.8359 16.6172 68.4453C16.2734 68.7578 15.8828 68.9141 15.4453 68.9141C15.2109 68.9141 14.9844 68.8438 14.7656 68.7031C14.5625 68.5781 14.4219 68.3984 14.3438 68.1641C14.3125 68.0859 14.2891 67.9766 14.2734 67.8359C14.2734 67.6953 14.2656 67.5469 14.25 67.3906C14.25 67.2344 14.25 67.0859 14.25 66.9453C14.2656 66.7891 14.2734 66.6641 14.2734 66.5703C13.7266 67.2266 13.0781 67.7812 12.3281 68.2344C11.5938 68.7031 10.7812 68.9375 9.89062 68.9375C9.84375 68.9375 9.77344 68.9219 9.67969 68.8906C9.60156 68.8594 9.53906 68.8359 9.49219 68.8203C9.13281 68.6484 8.85938 68.375 8.67188 68C8.5 67.625 8.41406 67.25 8.41406 66.875C8.41406 66.3594 8.47656 65.8516 8.60156 65.3516C8.74219 64.8359 8.92188 64.3438 9.14062 63.875C9.375 63.3906 9.64062 62.9297 9.9375 62.4922C10.2344 62.0547 10.5469 61.6406 10.875 61.25C11.7188 60.2031 12.6875 59.2969 13.7812 58.5312C14.875 57.75 16.0625 57.125 17.3438 56.6562C17.3594 56.6406 17.3906 56.6328 17.4375 56.6328C17.5469 56.6328 17.625 56.6719 17.6719 56.75C17.7344 56.8281 17.7656 56.9141 17.7656 57.0078C17.7656 57.1484 17.7109 57.2422 17.6016 57.2891C17.3359 57.4297 17.0703 57.5625 16.8047 57.6875C16.5547 57.7969 16.3047 57.9219 16.0547 58.0625C14.3203 59.0625 12.8594 60.3438 11.6719 61.9062C11.4375 62.2188 11.1953 62.5703 10.9453 62.9609C10.6953 63.3516 10.4688 63.7578 10.2656 64.1797C10.0625 64.5859 9.89062 65.0078 9.75 65.4453C9.625 65.8828 9.5625 66.3047 9.5625 66.7109C9.5625 66.7734 9.57031 66.8672 9.58594 66.9922C9.60156 67.1016 9.625 67.2188 9.65625 67.3438C9.6875 67.4531 9.73438 67.5547 9.79688 67.6484C9.875 67.7266 9.96094 67.7656 10.0547 67.7656C10.5078 67.7656 10.9453 67.6484 11.3672 67.4141C11.8047 67.1797 12.2109 66.8828 12.5859 66.5234C12.9609 66.1641 13.2969 65.7812 13.5938 65.375C13.8906 64.9688 14.1328 64.5859 14.3203 64.2266C14.6797 63.5703 15 62.9141 15.2812 62.2578C15.5625 61.5859 15.8438 60.9141 16.125 60.2422C16.2344 59.9609 16.3594 59.6328 16.5 59.2578C16.6562 58.8828 16.8047 58.5625 16.9453 58.2969C17.0078 58.1875 17.1094 58.1328 17.25 58.1328C17.3594 58.1328 17.4531 58.1641 17.5312 58.2266C17.6094 58.2891 17.6484 58.375 17.6484 58.4844L17.625 58.5312C17.5 59.0938 17.3594 59.6641 17.2031 60.2422C17.0469 60.8047 16.875 61.3594 16.6875 61.9062C16.6094 62.125 16.5156 62.3672 16.4062 62.6328C16.2969 62.8984 16.2109 63.125 16.1484 63.3125C16.1172 63.4219 16.0938 63.5312 16.0781 63.6406C16.0781 63.75 16.0703 63.8594 16.0547 63.9688C16.0078 64.2188 15.9531 64.4688 15.8906 64.7188C15.8438 64.9531 15.7891 65.1953 15.7266 65.4453C15.6484 65.7578 15.5781 66.0781 15.5156 66.4062C15.4688 66.7188 15.4453 67.0391 15.4453 67.3672C15.4453 67.4453 15.4453 67.5156 15.4453 67.5781C15.4453 67.6406 15.4531 67.7031 15.4688 67.7656C15.5781 67.7656 15.7031 67.7188 15.8438 67.625C16 67.5312 16.1562 67.4219 16.3125 67.2969C16.4688 67.1562 16.6094 67.0156 16.7344 66.875C16.875 66.7344 16.9844 66.625 17.0625 66.5469C17.5312 66.0469 17.9766 65.4922 18.3984 64.8828C18.5078 64.7578 18.6016 64.625 18.6797 64.4844C18.7734 64.3281 18.875 64.1875 18.9844 64.0625C19.0312 63.9844 19.1016 63.9453 19.1953 63.9453C19.3047 63.9453 19.3984 63.9844 19.4766 64.0625C19.5547 64.1406 19.5938 64.2344 19.5938 64.3438ZM27.375 52.6484C27.375 52.6797 27.3672 52.7031 27.3516 52.7188C27.3516 52.7344 27.3516 52.75 27.3516 52.7656C26.8672 53.8438 26.3672 54.9141 25.8516 55.9766C25.3359 57.0234 24.875 58.1094 24.4688 59.2344C24.6406 59.2344 24.8047 59.2344 24.9609 59.2344C25.1172 59.2188 25.2812 59.2109 25.4531 59.2109C25.5312 59.2109 25.6172 59.2109 25.7109 59.2109C25.8203 59.1953 25.9141 59.2031 25.9922 59.2344C26.0859 59.25 26.1641 59.2891 26.2266 59.3516C26.2891 59.3984 26.3203 59.4844 26.3203 59.6094C26.3203 59.7656 26.2578 59.8672 26.1328 59.9141C26.0234 59.9453 25.875 59.9844 25.6875 60.0312C25.5156 60.0625 25.3281 60.0938 25.125 60.125C24.9375 60.1562 24.75 60.1875 24.5625 60.2188C24.3906 60.2344 24.2422 60.25 24.1172 60.2656C23.9766 60.6719 23.8438 61.125 23.7188 61.625C23.5938 62.1094 23.4844 62.6172 23.3906 63.1484C23.2969 63.6641 23.2188 64.1797 23.1562 64.6953C23.0938 65.1953 23.0625 65.6562 23.0625 66.0781C23.0625 66.1875 23.0625 66.3594 23.0625 66.5938C23.0781 66.8125 23.1016 67.0312 23.1328 67.25C23.1797 67.4688 23.2422 67.6641 23.3203 67.8359C23.4141 68.0078 23.5391 68.0938 23.6953 68.0938C23.9141 68.0938 24.1641 67.9844 24.4453 67.7656C24.7266 67.5469 25 67.2969 25.2656 67.0156C25.5469 66.7188 25.8047 66.4297 26.0391 66.1484C26.2891 65.8516 26.4922 65.625 26.6484 65.4688C26.7109 65.4062 26.7812 65.375 26.8594 65.375C26.9531 65.375 27.0391 65.4141 27.1172 65.4922C27.2109 65.5703 27.2578 65.6562 27.2578 65.75C27.2578 65.7969 27.2344 65.8516 27.1875 65.9141C27.0156 66.1641 26.7891 66.4766 26.5078 66.8516C26.2422 67.2109 25.9453 67.5625 25.6172 67.9062C25.3047 68.2344 24.9688 68.5156 24.6094 68.75C24.2656 68.9844 23.9297 69.1016 23.6016 69.1016C23.2422 69.1016 22.9531 68.9766 22.7344 68.7266C22.5156 68.4766 22.3438 68.1797 22.2188 67.8359C22.1094 67.4766 22.0312 67.1094 21.9844 66.7344C21.9531 66.3438 21.9375 66.0156 21.9375 65.75C21.9375 65.375 21.9609 64.9531 22.0078 64.4844C22.0703 64.0156 22.1406 63.5391 22.2188 63.0547C22.2969 62.5703 22.3906 62.1016 22.5 61.6484C22.6094 61.1797 22.7109 60.7578 22.8047 60.3828C22.6797 60.3828 22.5547 60.3906 22.4297 60.4062C22.3203 60.4062 22.2031 60.4062 22.0781 60.4062C21.75 60.4062 21.4141 60.3984 21.0703 60.3828C20.7266 60.3672 20.3906 60.3359 20.0625 60.2891C19.7344 60.2266 19.4141 60.1328 19.1016 60.0078C18.7891 59.8672 18.5078 59.6797 18.2578 59.4453C18.1953 59.3984 18.1641 59.3281 18.1641 59.2344C18.1641 59.2031 18.2109 59.125 18.3047 59C18.3984 58.8594 18.4609 58.7891 18.4922 58.7891C19.0703 58.7891 19.6406 58.8516 20.2031 58.9766C20.7656 59.1016 21.3359 59.1797 21.9141 59.2109C22.1016 59.2266 22.2891 59.2344 22.4766 59.2344C22.6797 59.2344 22.8828 59.2344 23.0859 59.2344H23.1562C23.3281 58.7031 23.5391 58.125 23.7891 57.5C24.0391 56.875 24.3203 56.2578 24.6328 55.6484C24.9453 55.0391 25.2734 54.4531 25.6172 53.8906C25.9766 53.3125 26.3438 52.8125 26.7188 52.3906C26.8125 52.3281 26.8906 52.2969 26.9531 52.2969C27.0469 52.2969 27.1406 52.3359 27.2344 52.4141C27.3281 52.4766 27.375 52.5547 27.375 52.6484ZM44.6484 56.75C44.6484 56.9531 44.5547 57.0703 44.3672 57.1016C44.2891 57.1328 44.2109 57.1484 44.1328 57.1484C44.0703 57.1328 44 57.1328 43.9219 57.1484C43.7344 57.1641 43.5469 57.1875 43.3594 57.2188C43.1875 57.25 43.0078 57.2812 42.8203 57.3125C41.9766 57.4844 41.1484 57.7656 40.3359 58.1562C39.5391 58.5312 38.8438 59.0312 38.25 59.6562C38.0781 59.8438 37.9375 60.0469 37.8281 60.2656C37.7344 60.4688 37.6875 60.7031 37.6875 60.9688C37.6875 61.1406 37.7812 61.2734 37.9688 61.3672C38.1562 61.4609 38.3828 61.5547 38.6484 61.6484C38.9297 61.7422 39.2266 61.8438 39.5391 61.9531C39.8672 62.0625 40.1641 62.2188 40.4297 62.4219C40.7109 62.625 40.9453 62.8906 41.1328 63.2188C41.3203 63.5312 41.4141 63.9375 41.4141 64.4375C41.4141 65.0156 41.3047 65.5703 41.0859 66.1016C40.8672 66.6328 40.5625 67.1094 40.1719 67.5312C39.7812 67.9375 39.3281 68.2578 38.8125 68.4922C38.2969 68.7422 37.75 68.8672 37.1719 68.8672C36.625 68.8672 36.1406 68.75 35.7188 68.5156C35.3125 68.2812 34.9688 67.9766 34.6875 67.6016C34.4062 67.2266 34.1953 66.8047 34.0547 66.3359C33.9141 65.8516 33.8438 65.3594 33.8438 64.8594C33.8438 64.7656 33.8438 64.6484 33.8438 64.5078C33.8594 64.3516 33.875 64.2031 33.8906 64.0625C33.9219 63.9219 33.9688 63.7969 34.0312 63.6875C34.0938 63.5781 34.1875 63.5234 34.3125 63.5234C34.3906 63.5234 34.4688 63.5547 34.5469 63.6172C34.6406 63.6797 34.6875 63.7578 34.6875 63.8516C34.6875 64.2109 34.7266 64.6094 34.8047 65.0469C34.8984 65.4844 35.0391 65.8906 35.2266 66.2656C35.4141 66.6406 35.6641 66.9609 35.9766 67.2266C36.2891 67.4766 36.6719 67.6016 37.125 67.6016C37.5312 67.6016 37.9219 67.5156 38.2969 67.3438C38.6719 67.1562 39 66.9141 39.2812 66.6172C39.5781 66.3203 39.8047 65.9844 39.9609 65.6094C40.1328 65.2188 40.2188 64.8203 40.2188 64.4141V64.1797C40.2188 63.9141 40.125 63.6953 39.9375 63.5234C39.7656 63.3516 39.5469 63.2109 39.2812 63.1016C39.0156 62.9766 38.7266 62.8594 38.4141 62.75C38.1016 62.6406 37.8125 62.5156 37.5469 62.375C37.2812 62.2188 37.0547 62.0312 36.8672 61.8125C36.6953 61.5938 36.6094 61.3047 36.6094 60.9453C36.6094 60.5703 36.6875 60.2109 36.8438 59.8672C37.0156 59.5234 37.2344 59.2188 37.5 58.9531C38.4219 58.0625 39.4766 57.4219 40.6641 57.0312C41.8672 56.625 43.1016 56.4219 44.3672 56.4219C44.4609 56.4219 44.5312 56.4609 44.5781 56.5391C44.625 56.6016 44.6484 56.6719 44.6484 56.75ZM59.3906 66.5234C59.3906 66.6328 59.25 66.7969 58.9688 67.0156C58.7031 67.2188 58.3906 67.4297 58.0312 67.6484C57.6719 67.8516 57.3203 68.0391 56.9766 68.2109C56.6484 68.3984 56.4219 68.5156 56.2969 68.5625C56 68.6719 55.7188 68.7266 55.4531 68.7266C54.9531 68.7266 54.6016 68.5625 54.3984 68.2344C54.2109 67.9062 54.1172 67.5156 54.1172 67.0625C54.1172 66.5781 54.2031 66.0078 54.375 65.3516C54.5469 64.6953 54.75 64.0234 54.9844 63.3359C55.2344 62.6328 55.4844 61.9531 55.7344 61.2969C56 60.625 56.2188 60.0469 56.3906 59.5625C56.5 59.2344 56.6172 58.8594 56.7422 58.4375C56.8828 58.0156 56.9531 57.625 56.9531 57.2656C56.7344 57.3281 56.4766 57.4297 56.1797 57.5703C55.8984 57.6953 55.6641 57.8203 55.4766 57.9453C54.7734 58.4141 54.0938 58.9062 53.4375 59.4219C52.7812 59.9219 52.125 60.4453 51.4688 60.9922C51.2188 61.9766 50.9375 62.9531 50.625 63.9219C50.3125 64.8906 49.9531 65.8438 49.5469 66.7812C49.4219 67.0469 49.2969 67.3203 49.1719 67.6016C49.0625 67.8828 48.9297 68.1406 48.7734 68.375C48.7109 68.4844 48.625 68.5391 48.5156 68.5391C48.4375 68.5391 48.3438 68.5 48.2344 68.4219C48.1406 68.3438 48.0938 68.2656 48.0938 68.1875C48.0938 68.1719 48.1094 68.0781 48.1406 67.9062C48.1875 67.7188 48.2188 67.6172 48.2344 67.6016C48.4531 66.6328 48.7109 65.6875 49.0078 64.7656C49.3203 63.8281 49.6328 62.8906 49.9453 61.9531C50.1953 61.1094 50.4297 60.2656 50.6484 59.4219C50.7422 59.0625 50.8281 58.7031 50.9062 58.3438C50.9844 57.9688 51.0234 57.6016 51.0234 57.2422C51.0234 57.1797 51.0156 57.125 51 57.0781C51 57.0312 51 56.9844 51 56.9375C50.625 57.0156 50.2109 57.25 49.7578 57.6406C49.3203 58.0156 48.8828 58.4531 48.4453 58.9531C48.0078 59.4375 47.5938 59.9297 47.2031 60.4297C46.8125 60.9141 46.4844 61.3047 46.2188 61.6016C46.1875 61.6328 46.1641 61.6484 46.1484 61.6484C46.1016 61.7422 46.0547 61.8359 46.0078 61.9297C45.9766 62.0234 45.9375 62.1094 45.8906 62.1875C45.5312 62.8906 45.1875 63.5859 44.8594 64.2734C44.5469 64.9609 44.2422 65.6641 43.9453 66.3828C43.7734 66.7734 43.6172 67.1719 43.4766 67.5781C43.3516 67.9688 43.2109 68.3594 43.0547 68.75C43.0078 68.875 42.9219 68.9375 42.7969 68.9375C42.7188 68.9375 42.625 68.8984 42.5156 68.8203C42.4219 68.7422 42.375 68.6719 42.375 68.6094C42.375 68.5938 42.3906 68.5391 42.4219 68.4453C42.4375 68.3672 42.4609 68.2734 42.4922 68.1641C42.5078 68.0547 42.5234 67.9531 42.5391 67.8594C42.5703 67.7656 42.5859 67.7031 42.5859 67.6719C42.8516 66.6406 43.1719 65.625 43.5469 64.625C43.9375 63.625 44.3672 62.6406 44.8359 61.6719C45.0547 61.2188 45.2656 60.7656 45.4688 60.3125C45.6719 59.8438 45.8906 59.3828 46.125 58.9297C46.2188 58.7422 46.3281 58.5234 46.4531 58.2734C46.5781 58.0234 46.7109 57.7812 46.8516 57.5469C47.0078 57.2969 47.1641 57.0625 47.3203 56.8438C47.4766 56.6094 47.625 56.4219 47.7656 56.2812C47.8281 56.2188 47.8984 56.1875 47.9766 56.1875C48.0391 56.1875 48.125 56.2344 48.2344 56.3281C48.3438 56.4062 48.3984 56.4844 48.3984 56.5625C48.3984 56.6094 48.3672 56.7109 48.3047 56.8672C48.2578 57.0234 48.2031 57.1953 48.1406 57.3828C48.0781 57.5703 48.0078 57.75 47.9297 57.9219C47.8672 58.0781 47.8281 58.1875 47.8125 58.25C47.9844 58.0469 48.1953 57.8047 48.4453 57.5234C48.6953 57.2422 48.9609 56.9766 49.2422 56.7266C49.5391 56.4609 49.8438 56.2422 50.1562 56.0703C50.4688 55.8984 50.7734 55.8125 51.0703 55.8125C51.3047 55.8125 51.4922 55.8594 51.6328 55.9531C51.7891 56.0469 51.8984 56.1719 51.9609 56.3281C52.0391 56.4688 52.0859 56.6328 52.1016 56.8203C52.1328 57.0078 52.1484 57.1953 52.1484 57.3828C52.1484 57.6953 52.125 58.0078 52.0781 58.3203C52.0312 58.6328 51.9688 58.9453 51.8906 59.2578C52.1875 58.9609 52.5469 58.625 52.9688 58.25C53.3906 57.8594 53.8438 57.5 54.3281 57.1719C54.8125 56.8281 55.2969 56.5469 55.7812 56.3281C56.2812 56.0938 56.7422 55.9766 57.1641 55.9766C57.4141 55.9766 57.6406 56.0781 57.8438 56.2812C58.0625 56.4844 58.1719 56.7109 58.1719 56.9609C58.1719 57.2578 58.1562 57.5469 58.125 57.8281C58.0938 58.1094 58.0312 58.3906 57.9375 58.6719C57.75 59.3125 57.5312 59.9531 57.2812 60.5938C57.0312 61.2188 56.7812 61.8438 56.5312 62.4688C56.2812 63.0938 56.0391 63.7188 55.8047 64.3438C55.5859 64.9688 55.3984 65.6094 55.2422 66.2656C55.2109 66.4219 55.1797 66.5781 55.1484 66.7344C55.1172 66.8906 55.1016 67.0469 55.1016 67.2031C55.1016 67.375 55.1172 67.5234 55.1484 67.6484C55.1797 67.7578 55.2969 67.8125 55.5 67.8125C55.7656 67.8125 56.0859 67.7266 56.4609 67.5547C56.8359 67.3828 57.2031 67.1953 57.5625 66.9922C57.9375 66.7734 58.2578 66.5781 58.5234 66.4062C58.8047 66.2344 58.9766 66.1484 59.0391 66.1484C59.1328 66.1484 59.2109 66.1875 59.2734 66.2656C59.3516 66.3438 59.3906 66.4297 59.3906 66.5234ZM69.6094 64.3438C69.2031 65.1719 68.7812 65.9141 68.3438 66.5703C67.9062 67.2109 67.3359 67.8359 66.6328 68.4453C66.2891 68.7578 65.8984 68.9141 65.4609 68.9141C65.2266 68.9141 65 68.8438 64.7812 68.7031C64.5781 68.5781 64.4375 68.3984 64.3594 68.1641C64.3281 68.0859 64.3047 67.9766 64.2891 67.8359C64.2891 67.6953 64.2812 67.5469 64.2656 67.3906C64.2656 67.2344 64.2656 67.0859 64.2656 66.9453C64.2812 66.7891 64.2891 66.6641 64.2891 66.5703C63.7422 67.2266 63.0938 67.7812 62.3438 68.2344C61.6094 68.7031 60.7969 68.9375 59.9062 68.9375C59.8594 68.9375 59.7891 68.9219 59.6953 68.8906C59.6172 68.8594 59.5547 68.8359 59.5078 68.8203C59.1484 68.6484 58.875 68.375 58.6875 68C58.5156 67.625 58.4297 67.25 58.4297 66.875C58.4297 66.3594 58.4922 65.8516 58.6172 65.3516C58.7578 64.8359 58.9375 64.3438 59.1562 63.875C59.3906 63.3906 59.6562 62.9297 59.9531 62.4922C60.25 62.0547 60.5625 61.6406 60.8906 61.25C61.7344 60.2031 62.7031 59.2969 63.7969 58.5312C64.8906 57.75 66.0781 57.125 67.3594 56.6562C67.375 56.6406 67.4062 56.6328 67.4531 56.6328C67.5625 56.6328 67.6406 56.6719 67.6875 56.75C67.75 56.8281 67.7812 56.9141 67.7812 57.0078C67.7812 57.1484 67.7266 57.2422 67.6172 57.2891C67.3516 57.4297 67.0859 57.5625 66.8203 57.6875C66.5703 57.7969 66.3203 57.9219 66.0703 58.0625C64.3359 59.0625 62.875 60.3438 61.6875 61.9062C61.4531 62.2188 61.2109 62.5703 60.9609 62.9609C60.7109 63.3516 60.4844 63.7578 60.2812 64.1797C60.0781 64.5859 59.9062 65.0078 59.7656 65.4453C59.6406 65.8828 59.5781 66.3047 59.5781 66.7109C59.5781 66.7734 59.5859 66.8672 59.6016 66.9922C59.6172 67.1016 59.6406 67.2188 59.6719 67.3438C59.7031 67.4531 59.75 67.5547 59.8125 67.6484C59.8906 67.7266 59.9766 67.7656 60.0703 67.7656C60.5234 67.7656 60.9609 67.6484 61.3828 67.4141C61.8203 67.1797 62.2266 66.8828 62.6016 66.5234C62.9766 66.1641 63.3125 65.7812 63.6094 65.375C63.9062 64.9688 64.1484 64.5859 64.3359 64.2266C64.6953 63.5703 65.0156 62.9141 65.2969 62.2578C65.5781 61.5859 65.8594 60.9141 66.1406 60.2422C66.25 59.9609 66.375 59.6328 66.5156 59.2578C66.6719 58.8828 66.8203 58.5625 66.9609 58.2969C67.0234 58.1875 67.125 58.1328 67.2656 58.1328C67.375 58.1328 67.4688 58.1641 67.5469 58.2266C67.625 58.2891 67.6641 58.375 67.6641 58.4844L67.6406 58.5312C67.5156 59.0938 67.375 59.6641 67.2188 60.2422C67.0625 60.8047 66.8906 61.3594 66.7031 61.9062C66.625 62.125 66.5312 62.3672 66.4219 62.6328C66.3125 62.8984 66.2266 63.125 66.1641 63.3125C66.1328 63.4219 66.1094 63.5312 66.0938 63.6406C66.0938 63.75 66.0859 63.8594 66.0703 63.9688C66.0234 64.2188 65.9688 64.4688 65.9062 64.7188C65.8594 64.9531 65.8047 65.1953 65.7422 65.4453C65.6641 65.7578 65.5938 66.0781 65.5312 66.4062C65.4844 66.7188 65.4609 67.0391 65.4609 67.3672C65.4609 67.4453 65.4609 67.5156 65.4609 67.5781C65.4609 67.6406 65.4688 67.7031 65.4844 67.7656C65.5938 67.7656 65.7188 67.7188 65.8594 67.625C66.0156 67.5312 66.1719 67.4219 66.3281 67.2969C66.4844 67.1562 66.625 67.0156 66.75 66.875C66.8906 66.7344 67 66.625 67.0781 66.5469C67.5469 66.0469 67.9922 65.4922 68.4141 64.8828C68.5234 64.7578 68.6172 64.625 68.6953 64.4844C68.7891 64.3281 68.8906 64.1875 69 64.0625C69.0469 63.9844 69.1172 63.9453 69.2109 63.9453C69.3203 63.9453 69.4141 63.9844 69.4922 64.0625C69.5703 64.1406 69.6094 64.2344 69.6094 64.3438ZM79.0312 58.625C79.0312 58.75 79.0234 58.8672 79.0078 58.9766C78.9922 59.0859 78.9688 59.2031 78.9375 59.3281C78.9062 59.4531 78.8203 59.5156 78.6797 59.5156C78.6172 59.5156 78.5234 59.4922 78.3984 59.4453C78.2891 59.3828 78.2344 59.3203 78.2344 59.2578L78.2578 59.0469C78.2578 58.9375 78.2422 58.8047 78.2109 58.6484C78.1953 58.4922 78.1562 58.3438 78.0938 58.2031C78.0469 58.0469 77.9766 57.9219 77.8828 57.8281C77.7891 57.7188 77.6641 57.6641 77.5078 57.6641C77.1328 57.6641 76.7344 57.7812 76.3125 58.0156C75.8906 58.2344 75.5312 58.4531 75.2344 58.6719C75.1094 58.7656 74.9375 58.9062 74.7188 59.0938C74.5 59.2812 74.2734 59.4844 74.0391 59.7031C73.8047 59.9219 73.5859 60.1328 73.3828 60.3359C73.1953 60.5391 73.0625 60.7031 72.9844 60.8281C72.9375 60.8906 72.875 61.0078 72.7969 61.1797C72.7344 61.3359 72.6641 61.5078 72.5859 61.6953C72.5234 61.8828 72.4531 62.0625 72.375 62.2344C72.3125 62.4062 72.2578 62.5391 72.2109 62.6328C71.8984 63.3828 71.5938 64.1328 71.2969 64.8828C71.0156 65.6328 70.75 66.3906 70.5 67.1562C70.375 67.5156 70.2578 67.8828 70.1484 68.2578C70.0547 68.6484 69.9453 69.0234 69.8203 69.3828C69.7578 69.5078 69.6797 69.5703 69.5859 69.5703C69.5234 69.5703 69.4297 69.5312 69.3047 69.4531C69.1953 69.3906 69.1406 69.3281 69.1406 69.2656C69.1406 69.0938 69.1641 68.8984 69.2109 68.6797C69.2734 68.4609 69.3203 68.2656 69.3516 68.0938C69.5547 67.0781 69.8047 66.0781 70.1016 65.0938C70.3984 64.1094 70.7422 63.1406 71.1328 62.1875C71.2734 61.8125 71.4375 61.3672 71.625 60.8516C71.8281 60.3359 72.0391 59.8125 72.2578 59.2812C72.4766 58.7344 72.7031 58.2266 72.9375 57.7578C73.1875 57.2734 73.4375 56.8906 73.6875 56.6094C73.75 56.5469 73.8203 56.5156 73.8984 56.5156C73.9609 56.5156 74.0469 56.5547 74.1562 56.6328C74.2812 56.6953 74.3438 56.7656 74.3438 56.8438C74.3438 56.8906 74.3281 56.9766 74.2969 57.1016C74.2656 57.2109 74.2344 57.3359 74.2031 57.4766C74.1719 57.6016 74.1328 57.7266 74.0859 57.8516C74.0547 57.9609 74.0312 58.0391 74.0156 58.0859C74.5156 57.7109 75.0391 57.375 75.5859 57.0781C76.1328 56.7812 76.7344 56.6328 77.3906 56.6328C77.6719 56.6328 77.9141 56.6953 78.1172 56.8203C78.3203 56.9297 78.4922 57.0781 78.6328 57.2656C78.7734 57.4531 78.875 57.6641 78.9375 57.8984C79 58.1328 79.0312 58.375 79.0312 58.625ZM85.7109 52.6484C85.7109 52.6797 85.7031 52.7031 85.6875 52.7188C85.6875 52.7344 85.6875 52.75 85.6875 52.7656C85.2031 53.8438 84.7031 54.9141 84.1875 55.9766C83.6719 57.0234 83.2109 58.1094 82.8047 59.2344C82.9766 59.2344 83.1406 59.2344 83.2969 59.2344C83.4531 59.2188 83.6172 59.2109 83.7891 59.2109C83.8672 59.2109 83.9531 59.2109 84.0469 59.2109C84.1562 59.1953 84.25 59.2031 84.3281 59.2344C84.4219 59.25 84.5 59.2891 84.5625 59.3516C84.625 59.3984 84.6562 59.4844 84.6562 59.6094C84.6562 59.7656 84.5938 59.8672 84.4688 59.9141C84.3594 59.9453 84.2109 59.9844 84.0234 60.0312C83.8516 60.0625 83.6641 60.0938 83.4609 60.125C83.2734 60.1562 83.0859 60.1875 82.8984 60.2188C82.7266 60.2344 82.5781 60.25 82.4531 60.2656C82.3125 60.6719 82.1797 61.125 82.0547 61.625C81.9297 62.1094 81.8203 62.6172 81.7266 63.1484C81.6328 63.6641 81.5547 64.1797 81.4922 64.6953C81.4297 65.1953 81.3984 65.6562 81.3984 66.0781C81.3984 66.1875 81.3984 66.3594 81.3984 66.5938C81.4141 66.8125 81.4375 67.0312 81.4688 67.25C81.5156 67.4688 81.5781 67.6641 81.6562 67.8359C81.75 68.0078 81.875 68.0938 82.0312 68.0938C82.25 68.0938 82.5 67.9844 82.7812 67.7656C83.0625 67.5469 83.3359 67.2969 83.6016 67.0156C83.8828 66.7188 84.1406 66.4297 84.375 66.1484C84.625 65.8516 84.8281 65.625 84.9844 65.4688C85.0469 65.4062 85.1172 65.375 85.1953 65.375C85.2891 65.375 85.375 65.4141 85.4531 65.4922C85.5469 65.5703 85.5938 65.6562 85.5938 65.75C85.5938 65.7969 85.5703 65.8516 85.5234 65.9141C85.3516 66.1641 85.125 66.4766 84.8438 66.8516C84.5781 67.2109 84.2812 67.5625 83.9531 67.9062C83.6406 68.2344 83.3047 68.5156 82.9453 68.75C82.6016 68.9844 82.2656 69.1016 81.9375 69.1016C81.5781 69.1016 81.2891 68.9766 81.0703 68.7266C80.8516 68.4766 80.6797 68.1797 80.5547 67.8359C80.4453 67.4766 80.3672 67.1094 80.3203 66.7344C80.2891 66.3438 80.2734 66.0156 80.2734 65.75C80.2734 65.375 80.2969 64.9531 80.3438 64.4844C80.4062 64.0156 80.4766 63.5391 80.5547 63.0547C80.6328 62.5703 80.7266 62.1016 80.8359 61.6484C80.9453 61.1797 81.0469 60.7578 81.1406 60.3828C81.0156 60.3828 80.8906 60.3906 80.7656 60.4062C80.6562 60.4062 80.5391 60.4062 80.4141 60.4062C80.0859 60.4062 79.75 60.3984 79.4062 60.3828C79.0625 60.3672 78.7266 60.3359 78.3984 60.2891C78.0703 60.2266 77.75 60.1328 77.4375 60.0078C77.125 59.8672 76.8438 59.6797 76.5938 59.4453C76.5312 59.3984 76.5 59.3281 76.5 59.2344C76.5 59.2031 76.5469 59.125 76.6406 59C76.7344 58.8594 76.7969 58.7891 76.8281 58.7891C77.4062 58.7891 77.9766 58.8516 78.5391 58.9766C79.1016 59.1016 79.6719 59.1797 80.25 59.2109C80.4375 59.2266 80.625 59.2344 80.8125 59.2344C81.0156 59.2344 81.2188 59.2344 81.4219 59.2344H81.4922C81.6641 58.7031 81.875 58.125 82.125 57.5C82.375 56.875 82.6562 56.2578 82.9688 55.6484C83.2812 55.0391 83.6094 54.4531 83.9531 53.8906C84.3125 53.3125 84.6797 52.8125 85.0547 52.3906C85.1484 52.3281 85.2266 52.2969 85.2891 52.2969C85.3828 52.2969 85.4766 52.3359 85.5703 52.4141C85.6641 52.4766 85.7109 52.5547 85.7109 52.6484ZM94.4766 58.2266C94.4766 58.6172 94.3828 59.0078 94.1953 59.3984C94.0078 59.7734 93.7656 60.1328 93.4688 60.4766C93.1875 60.8203 92.875 61.1328 92.5312 61.4141C92.1875 61.6953 91.8672 61.9375 91.5703 62.1406C91.1172 62.4531 90.6406 62.7422 90.1406 63.0078C89.6562 63.2734 89.125 63.4062 88.5469 63.4062C88.4219 63.4062 88.2812 63.3906 88.125 63.3594C87.9844 63.3281 87.9141 63.2266 87.9141 63.0547C87.9141 62.8359 88.0156 62.7031 88.2188 62.6562C88.2656 62.6406 88.3203 62.6328 88.3828 62.6328C88.4453 62.6328 88.5078 62.625 88.5703 62.6094C88.7422 62.5781 88.9062 62.5234 89.0625 62.4453C89.2344 62.3672 89.4062 62.2812 89.5781 62.1875C89.8438 62.0156 90.1797 61.7734 90.5859 61.4609C90.9922 61.1484 91.3906 60.8047 91.7812 60.4297C92.1719 60.0547 92.5 59.6719 92.7656 59.2812C93.0469 58.8906 93.1875 58.5234 93.1875 58.1797C93.1875 57.9609 93.0703 57.8516 92.8359 57.8516C92.7422 57.8516 92.6484 57.8672 92.5547 57.8984C92.4609 57.9297 92.3672 57.9609 92.2734 57.9922C91.5234 58.2422 90.8359 58.625 90.2109 59.1406C89.5859 59.6406 89.0469 60.2266 88.5938 60.8984C88.1406 61.5703 87.7812 62.2891 87.5156 63.0547C87.2656 63.8203 87.1406 64.5859 87.1406 65.3516C87.1406 65.6016 87.1562 65.8906 87.1875 66.2188C87.2344 66.5312 87.3125 66.8281 87.4219 67.1094C87.5469 67.3906 87.7109 67.6328 87.9141 67.8359C88.1172 68.0234 88.3828 68.1172 88.7109 68.1172C88.8359 68.1172 88.9531 68.0938 89.0625 68.0469C89.1719 68.0156 89.2812 67.9688 89.3906 67.9062C89.8125 67.6719 90.2031 67.3594 90.5625 66.9688C90.9219 66.5625 91.2422 66.1562 91.5234 65.75C91.6016 65.6562 91.6719 65.5547 91.7344 65.4453C91.8125 65.3359 91.8906 65.2266 91.9688 65.1172C92.0156 65.0391 92.0938 65 92.2031 65C92.2969 65 92.3828 65.0312 92.4609 65.0938C92.5547 65.1562 92.6016 65.2422 92.6016 65.3516C92.6016 65.3828 92.5859 65.4297 92.5547 65.4922C92.3672 65.8359 92.1328 66.2188 91.8516 66.6406C91.5703 67.0469 91.2578 67.4297 90.9141 67.7891C90.5703 68.1484 90.1953 68.4453 89.7891 68.6797C89.3984 68.9297 88.9844 69.0547 88.5469 69.0547C88.0625 69.0547 87.6562 68.9141 87.3281 68.6328C87.0156 68.3672 86.7656 68.0391 86.5781 67.6484C86.3906 67.2422 86.2578 66.8125 86.1797 66.3594C86.1016 65.8906 86.0625 65.4688 86.0625 65.0938C86.0625 63.9062 86.3125 62.7734 86.8125 61.6953C87.3125 60.6016 87.9844 59.6406 88.8281 58.8125C89.0781 58.5625 89.3672 58.3125 89.6953 58.0625C90.0234 57.7969 90.3672 57.5625 90.7266 57.3594C91.1016 57.1406 91.4766 56.9688 91.8516 56.8438C92.2422 56.7031 92.6172 56.6328 92.9766 56.6328C93.4297 56.6328 93.7891 56.7891 94.0547 57.1016C94.3359 57.3984 94.4766 57.7734 94.4766 58.2266ZM103.523 58.625C103.523 58.75 103.516 58.8672 103.5 58.9766C103.484 59.0859 103.461 59.2031 103.43 59.3281C103.398 59.4531 103.312 59.5156 103.172 59.5156C103.109 59.5156 103.016 59.4922 102.891 59.4453C102.781 59.3828 102.727 59.3203 102.727 59.2578L102.75 59.0469C102.75 58.9375 102.734 58.8047 102.703 58.6484C102.688 58.4922 102.648 58.3438 102.586 58.2031C102.539 58.0469 102.469 57.9219 102.375 57.8281C102.281 57.7188 102.156 57.6641 102 57.6641C101.625 57.6641 101.227 57.7812 100.805 58.0156C100.383 58.2344 100.023 58.4531 99.7266 58.6719C99.6016 58.7656 99.4297 58.9062 99.2109 59.0938C98.9922 59.2812 98.7656 59.4844 98.5312 59.7031C98.2969 59.9219 98.0781 60.1328 97.875 60.3359C97.6875 60.5391 97.5547 60.7031 97.4766 60.8281C97.4297 60.8906 97.3672 61.0078 97.2891 61.1797C97.2266 61.3359 97.1562 61.5078 97.0781 61.6953C97.0156 61.8828 96.9453 62.0625 96.8672 62.2344C96.8047 62.4062 96.75 62.5391 96.7031 62.6328C96.3906 63.3828 96.0859 64.1328 95.7891 64.8828C95.5078 65.6328 95.2422 66.3906 94.9922 67.1562C94.8672 67.5156 94.75 67.8828 94.6406 68.2578C94.5469 68.6484 94.4375 69.0234 94.3125 69.3828C94.25 69.5078 94.1719 69.5703 94.0781 69.5703C94.0156 69.5703 93.9219 69.5312 93.7969 69.4531C93.6875 69.3906 93.6328 69.3281 93.6328 69.2656C93.6328 69.0938 93.6562 68.8984 93.7031 68.6797C93.7656 68.4609 93.8125 68.2656 93.8438 68.0938C94.0469 67.0781 94.2969 66.0781 94.5938 65.0938C94.8906 64.1094 95.2344 63.1406 95.625 62.1875C95.7656 61.8125 95.9297 61.3672 96.1172 60.8516C96.3203 60.3359 96.5312 59.8125 96.75 59.2812C96.9688 58.7344 97.1953 58.2266 97.4297 57.7578C97.6797 57.2734 97.9297 56.8906 98.1797 56.6094C98.2422 56.5469 98.3125 56.5156 98.3906 56.5156C98.4531 56.5156 98.5391 56.5547 98.6484 56.6328C98.7734 56.6953 98.8359 56.7656 98.8359 56.8438C98.8359 56.8906 98.8203 56.9766 98.7891 57.1016C98.7578 57.2109 98.7266 57.3359 98.6953 57.4766C98.6641 57.6016 98.625 57.7266 98.5781 57.8516C98.5469 57.9609 98.5234 58.0391 98.5078 58.0859C99.0078 57.7109 99.5312 57.375 100.078 57.0781C100.625 56.7812 101.227 56.6328 101.883 56.6328C102.164 56.6328 102.406 56.6953 102.609 56.8203C102.812 56.9297 102.984 57.0781 103.125 57.2656C103.266 57.4531 103.367 57.6641 103.43 57.8984C103.492 58.1328 103.523 58.375 103.523 58.625ZM117.164 52.6484C117.164 52.6797 117.156 52.7031 117.141 52.7188C117.141 52.7344 117.141 52.75 117.141 52.7656C116.656 53.8438 116.156 54.9141 115.641 55.9766C115.125 57.0234 114.664 58.1094 114.258 59.2344C114.43 59.2344 114.594 59.2344 114.75 59.2344C114.906 59.2188 115.07 59.2109 115.242 59.2109C115.32 59.2109 115.406 59.2109 115.5 59.2109C115.609 59.1953 115.703 59.2031 115.781 59.2344C115.875 59.25 115.953 59.2891 116.016 59.3516C116.078 59.3984 116.109 59.4844 116.109 59.6094C116.109 59.7656 116.047 59.8672 115.922 59.9141C115.812 59.9453 115.664 59.9844 115.477 60.0312C115.305 60.0625 115.117 60.0938 114.914 60.125C114.727 60.1562 114.539 60.1875 114.352 60.2188C114.18 60.2344 114.031 60.25 113.906 60.2656C113.766 60.6719 113.633 61.125 113.508 61.625C113.383 62.1094 113.273 62.6172 113.18 63.1484C113.086 63.6641 113.008 64.1797 112.945 64.6953C112.883 65.1953 112.852 65.6562 112.852 66.0781C112.852 66.1875 112.852 66.3594 112.852 66.5938C112.867 66.8125 112.891 67.0312 112.922 67.25C112.969 67.4688 113.031 67.6641 113.109 67.8359C113.203 68.0078 113.328 68.0938 113.484 68.0938C113.703 68.0938 113.953 67.9844 114.234 67.7656C114.516 67.5469 114.789 67.2969 115.055 67.0156C115.336 66.7188 115.594 66.4297 115.828 66.1484C116.078 65.8516 116.281 65.625 116.438 65.4688C116.5 65.4062 116.57 65.375 116.648 65.375C116.742 65.375 116.828 65.4141 116.906 65.4922C117 65.5703 117.047 65.6562 117.047 65.75C117.047 65.7969 117.023 65.8516 116.977 65.9141C116.805 66.1641 116.578 66.4766 116.297 66.8516C116.031 67.2109 115.734 67.5625 115.406 67.9062C115.094 68.2344 114.758 68.5156 114.398 68.75C114.055 68.9844 113.719 69.1016 113.391 69.1016C113.031 69.1016 112.742 68.9766 112.523 68.7266C112.305 68.4766 112.133 68.1797 112.008 67.8359C111.898 67.4766 111.82 67.1094 111.773 66.7344C111.742 66.3438 111.727 66.0156 111.727 65.75C111.727 65.375 111.75 64.9531 111.797 64.4844C111.859 64.0156 111.93 63.5391 112.008 63.0547C112.086 62.5703 112.18 62.1016 112.289 61.6484C112.398 61.1797 112.5 60.7578 112.594 60.3828C112.469 60.3828 112.344 60.3906 112.219 60.4062C112.109 60.4062 111.992 60.4062 111.867 60.4062C111.539 60.4062 111.203 60.3984 110.859 60.3828C110.516 60.3672 110.18 60.3359 109.852 60.2891C109.523 60.2266 109.203 60.1328 108.891 60.0078C108.578 59.8672 108.297 59.6797 108.047 59.4453C107.984 59.3984 107.953 59.3281 107.953 59.2344C107.953 59.2031 108 59.125 108.094 59C108.188 58.8594 108.25 58.7891 108.281 58.7891C108.859 58.7891 109.43 58.8516 109.992 58.9766C110.555 59.1016 111.125 59.1797 111.703 59.2109C111.891 59.2266 112.078 59.2344 112.266 59.2344C112.469 59.2344 112.672 59.2344 112.875 59.2344H112.945C113.117 58.7031 113.328 58.125 113.578 57.5C113.828 56.875 114.109 56.2578 114.422 55.6484C114.734 55.0391 115.062 54.4531 115.406 53.8906C115.766 53.3125 116.133 52.8125 116.508 52.3906C116.602 52.3281 116.68 52.2969 116.742 52.2969C116.836 52.2969 116.93 52.3359 117.023 52.4141C117.117 52.4766 117.164 52.5547 117.164 52.6484ZM127.102 59.5625C127.102 60.1562 127.031 60.8047 126.891 61.5078C126.766 62.2109 126.57 62.9141 126.305 63.6172C126.039 64.3203 125.711 65.0078 125.32 65.6797C124.945 66.3359 124.508 66.9219 124.008 67.4375C123.523 67.9531 122.977 68.3594 122.367 68.6562C121.773 68.9688 121.133 69.125 120.445 69.125C119.93 69.125 119.484 68.9844 119.109 68.7031C118.734 68.4375 118.414 68.0938 118.148 67.6719C117.898 67.25 117.711 66.7969 117.586 66.3125C117.461 65.8125 117.398 65.3438 117.398 64.9062C117.398 64.3906 117.469 63.8828 117.609 63.3828C118.047 61.9453 118.75 60.6641 119.719 59.5391C120.688 58.4141 121.867 57.5703 123.258 57.0078C123.289 56.9922 123.328 56.9844 123.375 56.9844C123.484 56.9844 123.562 57.0234 123.609 57.1016C123.672 57.1797 123.703 57.2656 123.703 57.3594C123.703 57.4688 123.641 57.5625 123.516 57.6406C123.297 57.7656 123.078 57.8906 122.859 58.0156C122.641 58.125 122.422 58.2656 122.203 58.4375C121.344 59.0625 120.609 59.8359 120 60.7578C119.391 61.6797 118.93 62.6484 118.617 63.6641C118.508 63.9922 118.453 64.3594 118.453 64.7656C118.453 65.0938 118.5 65.4453 118.594 65.8203C118.688 66.1953 118.828 66.5469 119.016 66.875C119.203 67.1875 119.438 67.4531 119.719 67.6719C120.016 67.875 120.359 67.9766 120.75 67.9766C121 67.9766 121.234 67.9297 121.453 67.8359C121.688 67.7422 121.906 67.625 122.109 67.4844C122.703 67.0625 123.234 66.5156 123.703 65.8438C124.172 65.1719 124.57 64.4531 124.898 63.6875C125.227 62.9062 125.477 62.1172 125.648 61.3203C125.82 60.5078 125.906 59.7422 125.906 59.0234V58.7422C125.875 58.3359 125.734 57.9922 125.484 57.7109C125.25 57.4297 124.953 57.2031 124.594 57.0312C124.484 56.9844 124.375 56.9453 124.266 56.9141C124.172 56.8828 124.078 56.8438 123.984 56.7969C123.828 56.7344 123.75 56.625 123.75 56.4688C123.75 56.3594 123.781 56.2656 123.844 56.1875C123.906 56.1094 123.992 56.0781 124.102 56.0938H124.125C124.469 56.125 124.805 56.2031 125.133 56.3281C125.477 56.4531 125.781 56.625 126.047 56.8438C126.312 57.0625 126.531 57.3203 126.703 57.6172C126.891 57.9141 127.008 58.25 127.055 58.625C127.086 58.7812 127.102 58.9375 127.102 59.0938C127.102 59.2344 127.102 59.3906 127.102 59.5625ZM139.898 49.8125C139.898 49.8594 139.891 49.8984 139.875 49.9297C139.375 51.1328 138.891 52.3359 138.422 53.5391C137.969 54.7266 137.539 55.9453 137.133 57.1953C137.242 57.2266 137.367 57.2734 137.508 57.3359C137.648 57.3984 137.719 57.4922 137.719 57.6172C137.719 57.7266 137.688 57.8203 137.625 57.8984C137.562 57.9766 137.477 58.0156 137.367 58.0156C137.305 58.0156 137.227 58 137.133 57.9688C137.055 57.9375 136.984 57.9062 136.922 57.875C136.688 58.5938 136.453 59.3594 136.219 60.1719C135.984 60.9844 135.766 61.8047 135.562 62.6328C135.375 63.4609 135.219 64.2891 135.094 65.1172C134.969 65.9297 134.906 66.7109 134.906 67.4609C134.906 67.5234 134.906 67.6094 134.906 67.7188C134.906 67.8125 134.914 67.9062 134.93 68C134.945 68.0938 134.969 68.1719 135 68.2344C135.047 68.3125 135.117 68.3516 135.211 68.3516C135.352 68.3516 135.547 68.2422 135.797 68.0234C136.062 67.8047 136.328 67.5547 136.594 67.2734C136.859 66.9766 137.109 66.6953 137.344 66.4297C137.594 66.1484 137.773 65.9531 137.883 65.8438C137.93 65.7656 138 65.7266 138.094 65.7266C138.188 65.7266 138.273 65.7656 138.352 65.8438C138.43 65.9219 138.469 66.0078 138.469 66.1016C138.469 66.1797 138.453 66.2344 138.422 66.2656C138.109 66.75 137.766 67.2031 137.391 67.625C137.016 68.0469 136.617 68.4453 136.195 68.8203C135.883 69.1016 135.547 69.2422 135.188 69.2422C134.875 69.2422 134.633 69.1562 134.461 68.9844C134.289 68.8125 134.156 68.6016 134.062 68.3516C133.984 68.1172 133.93 67.8594 133.898 67.5781C133.883 67.2969 133.875 67.0391 133.875 66.8047C133.875 66.6484 133.875 66.5 133.875 66.3594C133.891 66.2031 133.906 66.0547 133.922 65.9141C133.719 66.2109 133.461 66.5469 133.148 66.9219C132.836 67.2812 132.492 67.625 132.117 67.9531C131.758 68.2812 131.375 68.5547 130.969 68.7734C130.578 69.0078 130.188 69.125 129.797 69.125C129.391 69.125 129.055 69.0312 128.789 68.8438C128.539 68.6562 128.344 68.4141 128.203 68.1172C128.062 67.8359 127.961 67.5234 127.898 67.1797C127.852 66.8359 127.828 66.5078 127.828 66.1953C127.828 65.5234 127.906 64.8438 128.062 64.1562C128.234 63.4531 128.461 62.7734 128.742 62.1172C129.039 61.4453 129.383 60.8125 129.773 60.2188C130.164 59.6094 130.594 59.0703 131.062 58.6016C131.609 58.0547 132.25 57.6328 132.984 57.3359C133.719 57.0234 134.484 56.8672 135.281 56.8672C135.391 56.8672 135.492 56.8672 135.586 56.8672C135.695 56.8672 135.805 56.875 135.914 56.8906C136.086 56.3125 136.281 55.6953 136.5 55.0391C136.734 54.3828 136.992 53.7266 137.273 53.0703C137.555 52.4141 137.859 51.7812 138.188 51.1719C138.531 50.5625 138.891 50.0234 139.266 49.5547C139.312 49.4766 139.391 49.4375 139.5 49.4375C139.594 49.4375 139.68 49.4766 139.758 49.5547C139.852 49.6172 139.898 49.7031 139.898 49.8125ZM135.68 57.6875H135.492C134.57 57.6719 133.75 57.8906 133.031 58.3438C132.328 58.7812 131.711 59.3516 131.18 60.0547C130.664 60.7422 130.234 61.5078 129.891 62.3516C129.562 63.1953 129.32 64.0078 129.164 64.7891C129.07 65.1953 129.023 65.6016 129.023 66.0078C129.023 66.1328 129.023 66.3047 129.023 66.5234C129.039 66.7266 129.07 66.9297 129.117 67.1328C129.18 67.3359 129.258 67.5078 129.352 67.6484C129.461 67.7891 129.609 67.8594 129.797 67.8594C130.047 67.8594 130.375 67.7109 130.781 67.4141C131.203 67.1016 131.625 66.7422 132.047 66.3359C132.484 65.9141 132.898 65.5 133.289 65.0938C133.68 64.6875 133.969 64.3906 134.156 64.2031C134.188 64.1719 134.219 64.1562 134.25 64.1562C134.328 63.0625 134.508 61.9766 134.789 60.8984C135.086 59.8047 135.383 58.7344 135.68 57.6875ZM148.922 64.3438C148.516 65.1719 148.094 65.9141 147.656 66.5703C147.219 67.2109 146.648 67.8359 145.945 68.4453C145.602 68.7578 145.211 68.9141 144.773 68.9141C144.539 68.9141 144.312 68.8438 144.094 68.7031C143.891 68.5781 143.75 68.3984 143.672 68.1641C143.641 68.0859 143.617 67.9766 143.602 67.8359C143.602 67.6953 143.594 67.5469 143.578 67.3906C143.578 67.2344 143.578 67.0859 143.578 66.9453C143.594 66.7891 143.602 66.6641 143.602 66.5703C143.055 67.2266 142.406 67.7812 141.656 68.2344C140.922 68.7031 140.109 68.9375 139.219 68.9375C139.172 68.9375 139.102 68.9219 139.008 68.8906C138.93 68.8594 138.867 68.8359 138.82 68.8203C138.461 68.6484 138.188 68.375 138 68C137.828 67.625 137.742 67.25 137.742 66.875C137.742 66.3594 137.805 65.8516 137.93 65.3516C138.07 64.8359 138.25 64.3438 138.469 63.875C138.703 63.3906 138.969 62.9297 139.266 62.4922C139.562 62.0547 139.875 61.6406 140.203 61.25C141.047 60.2031 142.016 59.2969 143.109 58.5312C144.203 57.75 145.391 57.125 146.672 56.6562C146.688 56.6406 146.719 56.6328 146.766 56.6328C146.875 56.6328 146.953 56.6719 147 56.75C147.062 56.8281 147.094 56.9141 147.094 57.0078C147.094 57.1484 147.039 57.2422 146.93 57.2891C146.664 57.4297 146.398 57.5625 146.133 57.6875C145.883 57.7969 145.633 57.9219 145.383 58.0625C143.648 59.0625 142.188 60.3438 141 61.9062C140.766 62.2188 140.523 62.5703 140.273 62.9609C140.023 63.3516 139.797 63.7578 139.594 64.1797C139.391 64.5859 139.219 65.0078 139.078 65.4453C138.953 65.8828 138.891 66.3047 138.891 66.7109C138.891 66.7734 138.898 66.8672 138.914 66.9922C138.93 67.1016 138.953 67.2188 138.984 67.3438C139.016 67.4531 139.062 67.5547 139.125 67.6484C139.203 67.7266 139.289 67.7656 139.383 67.7656C139.836 67.7656 140.273 67.6484 140.695 67.4141C141.133 67.1797 141.539 66.8828 141.914 66.5234C142.289 66.1641 142.625 65.7812 142.922 65.375C143.219 64.9688 143.461 64.5859 143.648 64.2266C144.008 63.5703 144.328 62.9141 144.609 62.2578C144.891 61.5859 145.172 60.9141 145.453 60.2422C145.562 59.9609 145.688 59.6328 145.828 59.2578C145.984 58.8828 146.133 58.5625 146.273 58.2969C146.336 58.1875 146.438 58.1328 146.578 58.1328C146.688 58.1328 146.781 58.1641 146.859 58.2266C146.938 58.2891 146.977 58.375 146.977 58.4844L146.953 58.5312C146.828 59.0938 146.688 59.6641 146.531 60.2422C146.375 60.8047 146.203 61.3594 146.016 61.9062C145.938 62.125 145.844 62.3672 145.734 62.6328C145.625 62.8984 145.539 63.125 145.477 63.3125C145.445 63.4219 145.422 63.5312 145.406 63.6406C145.406 63.75 145.398 63.8594 145.383 63.9688C145.336 64.2188 145.281 64.4688 145.219 64.7188C145.172 64.9531 145.117 65.1953 145.055 65.4453C144.977 65.7578 144.906 66.0781 144.844 66.4062C144.797 66.7188 144.773 67.0391 144.773 67.3672C144.773 67.4453 144.773 67.5156 144.773 67.5781C144.773 67.6406 144.781 67.7031 144.797 67.7656C144.906 67.7656 145.031 67.7188 145.172 67.625C145.328 67.5312 145.484 67.4219 145.641 67.2969C145.797 67.1562 145.938 67.0156 146.062 66.875C146.203 66.7344 146.312 66.625 146.391 66.5469C146.859 66.0469 147.305 65.4922 147.727 64.8828C147.836 64.7578 147.93 64.625 148.008 64.4844C148.102 64.3281 148.203 64.1875 148.312 64.0625C148.359 63.9844 148.43 63.9453 148.523 63.9453C148.633 63.9453 148.727 63.9844 148.805 64.0625C148.883 64.1406 148.922 64.2344 148.922 64.3438ZM160.148 56.9844C160.148 57.0469 160.141 57.0938 160.125 57.125C159.531 58.7188 158.898 60.2812 158.227 61.8125C157.555 63.3281 156.922 64.8828 156.328 66.4766C156.031 67.2422 155.766 68.0078 155.531 68.7734C155.312 69.5391 155.094 70.3203 154.875 71.1172C154.828 71.2891 154.773 71.4453 154.711 71.5859C154.664 71.7422 154.609 71.9062 154.547 72.0781C154.359 72.6562 154.164 73.2188 153.961 73.7656C153.758 74.3281 153.523 74.875 153.258 75.4062C152.992 75.9375 152.688 76.4375 152.344 76.9062C152 77.3906 151.609 77.8047 151.172 78.1484C150.734 78.5078 150.258 78.7891 149.742 78.9922C149.227 79.2109 148.664 79.3203 148.055 79.3203C147.414 79.3203 146.82 79.2031 146.273 78.9688C145.711 78.75 145.195 78.4453 144.727 78.0547C144.258 77.6797 143.844 77.2266 143.484 76.6953C143.109 76.1797 142.781 75.6172 142.5 75.0078C142.469 74.9453 142.453 74.8906 142.453 74.8438C142.438 74.7188 142.477 74.625 142.57 74.5625C142.648 74.5156 142.734 74.4922 142.828 74.4922C142.891 74.4922 142.945 74.5156 142.992 74.5625C143.039 74.6094 143.078 74.6562 143.109 74.7031C143.219 74.875 143.32 75.0547 143.414 75.2422C143.492 75.4453 143.594 75.6328 143.719 75.8047C143.953 76.1328 144.227 76.4453 144.539 76.7422C144.836 77.0547 145.172 77.3203 145.547 77.5391C145.906 77.7734 146.289 77.9531 146.695 78.0781C147.102 78.2188 147.516 78.2891 147.938 78.2891C148.578 78.2891 149.172 78.1328 149.719 77.8203C150.5 77.3516 151.148 76.7031 151.664 75.875C152.18 75.0469 152.625 74.1328 153 73.1328C153.359 72.1641 153.664 71.1719 153.914 70.1562C154.18 69.1562 154.445 68.2188 154.711 67.3438C154.523 67.5156 154.297 67.7031 154.031 67.9062C153.766 68.1094 153.492 68.2969 153.211 68.4688C152.93 68.6562 152.641 68.8125 152.344 68.9375C152.062 69.0625 151.805 69.125 151.57 69.125C151.117 69.125 150.703 68.9766 150.328 68.6797C149.969 68.3828 149.742 67.9844 149.648 67.4844C149.57 67.1719 149.523 66.8828 149.508 66.6172C149.477 66.1328 149.492 65.625 149.555 65.0938C149.633 64.5469 149.734 64.0078 149.859 63.4766C150 62.9297 150.156 62.4062 150.328 61.9062C150.5 61.3906 150.68 60.9219 150.867 60.5C151.258 59.5938 151.68 58.7031 152.133 57.8281C152.227 57.6562 152.312 57.4766 152.391 57.2891C152.469 57.1016 152.562 56.9219 152.672 56.75C152.734 56.6562 152.828 56.6094 152.953 56.6094C153.031 56.6094 153.117 56.6562 153.211 56.75C153.305 56.8281 153.359 56.9141 153.375 57.0078L153.305 57.3594C153.164 58.0156 152.977 58.6562 152.742 59.2812C152.523 59.9062 152.289 60.5156 152.039 61.1094C151.867 61.5312 151.688 61.9766 151.5 62.4453C151.328 62.8984 151.172 63.3594 151.031 63.8281C150.906 64.2969 150.805 64.7734 150.727 65.2578C150.648 65.7266 150.625 66.1953 150.656 66.6641C150.672 66.8047 150.688 66.9531 150.703 67.1094C150.734 67.2656 150.781 67.4141 150.844 67.5547C150.906 67.6797 150.984 67.7891 151.078 67.8828C151.172 67.9609 151.297 68 151.453 68C151.719 68 152.031 67.9141 152.391 67.7422C152.75 67.5547 153.109 67.3438 153.469 67.1094C153.828 66.8594 154.164 66.6016 154.477 66.3359C154.805 66.0703 155.07 65.8438 155.273 65.6562C155.68 64.5312 156.117 63.4375 156.586 62.375C157.055 61.2969 157.562 60.2422 158.109 59.2109C158.328 58.8047 158.547 58.3906 158.766 57.9688C158.984 57.5312 159.219 57.1172 159.469 56.7266C159.531 56.6172 159.625 56.5625 159.75 56.5625C159.859 56.5625 159.945 56.6094 160.008 56.7031C160.086 56.7812 160.133 56.875 160.148 56.9844ZM185.297 53.2578C185.297 53.6797 185.234 54.1016 185.109 54.5234C184.828 55.4766 184.391 56.3984 183.797 57.2891C183.219 58.1641 182.57 59.0234 181.852 59.8672C181.133 60.6953 180.391 61.5 179.625 62.2812C178.859 63.0469 178.148 63.7969 177.492 64.5312C176.867 65.2344 176.273 65.9531 175.711 66.6875C175.148 67.4219 174.625 68.1953 174.141 69.0078C174.094 69.0859 174.047 69.1641 174 69.2422C173.953 69.3203 173.875 69.3594 173.766 69.3594C173.703 69.3594 173.617 69.3203 173.508 69.2422C173.398 69.1641 173.344 69.0938 173.344 69.0312C173.344 68.7969 173.375 68.5234 173.438 68.2109C173.516 67.8984 173.578 67.6328 173.625 67.4141C173.766 66.7578 173.93 66.1094 174.117 65.4688C174.305 64.8281 174.461 64.1797 174.586 63.5234C174.758 62.7422 174.914 61.9688 175.055 61.2031C175.195 60.4375 175.312 59.6562 175.406 58.8594C174.969 59.5625 174.5 60.2422 174 60.8984C173.5 61.5391 173 62.1875 172.5 62.8438C171.891 63.6406 171.266 64.4297 170.625 65.2109C170 65.9922 169.352 66.7578 168.68 67.5078C168.445 67.7734 168.211 68.0312 167.977 68.2812C167.742 68.5312 167.5 68.7812 167.25 69.0312C167.203 69.0781 167.141 69.1016 167.062 69.1016C166.984 69.1016 166.875 69.0469 166.734 68.9375C166.594 68.8438 166.523 68.7578 166.523 68.6797C166.523 68.2422 166.555 67.7969 166.617 67.3438C166.695 66.8906 166.781 66.4297 166.875 65.9609C166.984 65.4922 167.094 65.0312 167.203 64.5781C167.312 64.125 167.406 63.6797 167.484 63.2422C167.641 62.5078 167.789 61.7812 167.93 61.0625C168.086 60.3438 168.25 59.6172 168.422 58.8828C168.5 58.5391 168.57 58.1953 168.633 57.8516C168.711 57.4922 168.805 57.1484 168.914 56.8203C168.961 56.6953 169.055 56.6328 169.195 56.6328C169.258 56.6328 169.344 56.6719 169.453 56.75C169.562 56.8125 169.617 56.875 169.617 56.9375C169.617 57.0469 169.602 57.1875 169.57 57.3594C169.555 57.5156 169.531 57.6875 169.5 57.875C169.484 58.0469 169.461 58.2188 169.43 58.3906C169.398 58.5625 169.375 58.7109 169.359 58.8359C169.266 59.6172 169.156 60.3906 169.031 61.1562C168.906 61.9219 168.781 62.6875 168.656 63.4531C168.547 64.0469 168.445 64.6406 168.352 65.2344C168.258 65.8125 168.125 66.3906 167.953 66.9688C168.562 66.1719 169.164 65.375 169.758 64.5781C170.367 63.7656 170.969 62.9531 171.562 62.1406C172.219 61.25 172.852 60.3594 173.461 59.4688C174.086 58.5625 174.797 57.7188 175.594 56.9375C175.656 56.7812 175.773 56.7031 175.945 56.7031C176.023 56.7031 176.094 56.7266 176.156 56.7734C176.234 56.8203 176.273 56.8828 176.273 56.9609C176.289 56.9609 176.297 56.9609 176.297 56.9609C176.297 56.9453 176.305 56.9375 176.32 56.9375C176.336 56.9375 176.344 56.9609 176.344 57.0078C176.359 57.0391 176.367 57.0703 176.367 57.1016C176.367 57.1328 176.359 57.1641 176.344 57.1953C176.328 57.2266 176.312 57.2578 176.297 57.2891C176.312 57.4609 176.32 57.6406 176.32 57.8281C176.32 58 176.32 58.1797 176.32 58.3672C176.32 59.4766 176.242 60.5703 176.086 61.6484C175.93 62.7266 175.742 63.8125 175.523 64.9062C175.836 64.5 176.156 64.1094 176.484 63.7344C176.828 63.3438 177.18 62.9688 177.539 62.6094C177.883 62.25 178.289 61.8359 178.758 61.3672C179.242 60.8984 179.734 60.3984 180.234 59.8672C180.734 59.3359 181.227 58.7891 181.711 58.2266C182.195 57.6484 182.633 57.0703 183.023 56.4922C183.414 55.8984 183.727 55.3125 183.961 54.7344C184.195 54.1562 184.312 53.6094 184.312 53.0938C184.312 52.4531 184.133 51.8984 183.773 51.4297C183.523 51.1172 183.219 50.8516 182.859 50.6328C182.516 50.4141 182.164 50.2188 181.805 50.0469C181.68 50 181.555 49.9609 181.43 49.9297C181.32 49.8828 181.219 49.8359 181.125 49.7891C180.984 49.7266 180.914 49.625 180.914 49.4844C180.914 49.4062 180.953 49.3281 181.031 49.25C181.109 49.1562 181.188 49.1094 181.266 49.1094H181.312C181.828 49.25 182.328 49.4375 182.812 49.6719C183.297 49.8906 183.719 50.1719 184.078 50.5156C184.453 50.8438 184.75 51.2344 184.969 51.6875C185.188 52.1406 185.297 52.6641 185.297 53.2578ZM188.156 50.5391C188.156 50.6328 188.117 50.7422 188.039 50.8672L188.016 50.9375C188.047 51.0312 188.062 51.1016 188.062 51.1484C187.953 51.2266 187.875 51.3125 187.828 51.4062C187.781 51.4844 187.672 51.5234 187.5 51.5234C187.359 51.5234 187.219 51.4688 187.078 51.3594C186.938 51.2344 186.867 51.0859 186.867 50.9141C186.867 50.6328 186.891 50.4062 186.938 50.2344C187 50.0469 187.211 49.9531 187.57 49.9531C187.711 49.9531 187.844 50.0156 187.969 50.1406C188.094 50.2656 188.156 50.3984 188.156 50.5391ZM187.992 65.4922C187.992 65.5703 187.969 65.6328 187.922 65.6797C187.625 66.0391 187.336 66.3984 187.055 66.7578C186.789 67.1016 186.5 67.4219 186.188 67.7188C185.891 68.0156 185.555 68.2656 185.18 68.4688C184.805 68.6875 184.375 68.8438 183.891 68.9375C183.469 68.75 183.18 68.5 183.023 68.1875C182.867 67.8906 182.789 67.5234 182.789 67.0859V66.2422C182.789 65.8359 182.828 65.4141 182.906 64.9766C183 64.5391 183.094 64.1172 183.188 63.7109C183.328 63.1016 183.484 62.4453 183.656 61.7422C183.844 61.0391 184.055 60.3438 184.289 59.6562C184.539 58.9531 184.82 58.2812 185.133 57.6406C185.445 56.9844 185.797 56.4141 186.188 55.9297C186.266 55.8516 186.344 55.8125 186.422 55.8125C186.516 55.8125 186.609 55.8516 186.703 55.9297C186.797 55.9922 186.844 56.0781 186.844 56.1875V56.2344C186.578 57.0625 186.273 57.9375 185.93 58.8594C185.602 59.7656 185.281 60.6953 184.969 61.6484C184.672 62.5859 184.414 63.5234 184.195 64.4609C183.992 65.3984 183.891 66.3047 183.891 67.1797C183.891 67.2734 183.891 67.4062 183.891 67.5781C183.906 67.75 183.961 67.8594 184.055 67.9062C184.398 67.8438 184.758 67.6641 185.133 67.3672C185.523 67.0703 185.883 66.7578 186.211 66.4297C186.555 66.1016 186.852 65.8047 187.102 65.5391C187.352 65.2734 187.523 65.1406 187.617 65.1406C187.695 65.1406 187.773 65.1797 187.852 65.2578C187.945 65.3359 187.992 65.4141 187.992 65.4922ZM195.68 52.6484C195.68 52.6797 195.672 52.7031 195.656 52.7188C195.656 52.7344 195.656 52.75 195.656 52.7656C195.172 53.8438 194.672 54.9141 194.156 55.9766C193.641 57.0234 193.18 58.1094 192.773 59.2344C192.945 59.2344 193.109 59.2344 193.266 59.2344C193.422 59.2188 193.586 59.2109 193.758 59.2109C193.836 59.2109 193.922 59.2109 194.016 59.2109C194.125 59.1953 194.219 59.2031 194.297 59.2344C194.391 59.25 194.469 59.2891 194.531 59.3516C194.594 59.3984 194.625 59.4844 194.625 59.6094C194.625 59.7656 194.562 59.8672 194.438 59.9141C194.328 59.9453 194.18 59.9844 193.992 60.0312C193.82 60.0625 193.633 60.0938 193.43 60.125C193.242 60.1562 193.055 60.1875 192.867 60.2188C192.695 60.2344 192.547 60.25 192.422 60.2656C192.281 60.6719 192.148 61.125 192.023 61.625C191.898 62.1094 191.789 62.6172 191.695 63.1484C191.602 63.6641 191.523 64.1797 191.461 64.6953C191.398 65.1953 191.367 65.6562 191.367 66.0781C191.367 66.1875 191.367 66.3594 191.367 66.5938C191.383 66.8125 191.406 67.0312 191.438 67.25C191.484 67.4688 191.547 67.6641 191.625 67.8359C191.719 68.0078 191.844 68.0938 192 68.0938C192.219 68.0938 192.469 67.9844 192.75 67.7656C193.031 67.5469 193.305 67.2969 193.57 67.0156C193.852 66.7188 194.109 66.4297 194.344 66.1484C194.594 65.8516 194.797 65.625 194.953 65.4688C195.016 65.4062 195.086 65.375 195.164 65.375C195.258 65.375 195.344 65.4141 195.422 65.4922C195.516 65.5703 195.562 65.6562 195.562 65.75C195.562 65.7969 195.539 65.8516 195.492 65.9141C195.32 66.1641 195.094 66.4766 194.812 66.8516C194.547 67.2109 194.25 67.5625 193.922 67.9062C193.609 68.2344 193.273 68.5156 192.914 68.75C192.57 68.9844 192.234 69.1016 191.906 69.1016C191.547 69.1016 191.258 68.9766 191.039 68.7266C190.82 68.4766 190.648 68.1797 190.523 67.8359C190.414 67.4766 190.336 67.1094 190.289 66.7344C190.258 66.3438 190.242 66.0156 190.242 65.75C190.242 65.375 190.266 64.9531 190.312 64.4844C190.375 64.0156 190.445 63.5391 190.523 63.0547C190.602 62.5703 190.695 62.1016 190.805 61.6484C190.914 61.1797 191.016 60.7578 191.109 60.3828C190.984 60.3828 190.859 60.3906 190.734 60.4062C190.625 60.4062 190.508 60.4062 190.383 60.4062C190.055 60.4062 189.719 60.3984 189.375 60.3828C189.031 60.3672 188.695 60.3359 188.367 60.2891C188.039 60.2266 187.719 60.1328 187.406 60.0078C187.094 59.8672 186.812 59.6797 186.562 59.4453C186.5 59.3984 186.469 59.3281 186.469 59.2344C186.469 59.2031 186.516 59.125 186.609 59C186.703 58.8594 186.766 58.7891 186.797 58.7891C187.375 58.7891 187.945 58.8516 188.508 58.9766C189.07 59.1016 189.641 59.1797 190.219 59.2109C190.406 59.2266 190.594 59.2344 190.781 59.2344C190.984 59.2344 191.188 59.2344 191.391 59.2344H191.461C191.633 58.7031 191.844 58.125 192.094 57.5C192.344 56.875 192.625 56.2578 192.938 55.6484C193.25 55.0391 193.578 54.4531 193.922 53.8906C194.281 53.3125 194.648 52.8125 195.023 52.3906C195.117 52.3281 195.195 52.2969 195.258 52.2969C195.352 52.2969 195.445 52.3359 195.539 52.4141C195.633 52.4766 195.68 52.5547 195.68 52.6484ZM207.727 66.4766C207.727 66.6016 207.688 66.6797 207.609 66.7109C207.422 66.8828 207.156 67.0859 206.812 67.3203C206.484 67.5391 206.133 67.75 205.758 67.9531C205.398 68.1562 205.039 68.3281 204.68 68.4688C204.32 68.625 204.016 68.7031 203.766 68.7031C203.578 68.7031 203.406 68.6562 203.25 68.5625C203.094 68.4844 202.953 68.375 202.828 68.2344C202.719 68.0938 202.625 67.9375 202.547 67.7656C202.484 67.5938 202.453 67.4219 202.453 67.25C202.453 67.2188 202.453 67.1875 202.453 67.1562C202.469 67.1094 202.477 67.0703 202.477 67.0391C202.523 66.6953 202.57 66.3594 202.617 66.0312C202.664 65.7031 202.734 65.375 202.828 65.0469C202.984 64.4219 203.172 63.8125 203.391 63.2188C203.625 62.6094 203.852 62.0078 204.07 61.4141C204.305 60.8047 204.523 60.2031 204.727 59.6094C204.945 59 205.125 58.3828 205.266 57.7578C205.297 57.6641 205.312 57.5703 205.312 57.4766C205.328 57.3828 205.344 57.2891 205.359 57.1953C205.094 57.2266 204.789 57.3281 204.445 57.5C204.117 57.6719 203.781 57.875 203.438 58.1094C203.094 58.3438 202.766 58.5938 202.453 58.8594C202.156 59.1094 201.906 59.3203 201.703 59.4922C201.453 59.7109 201.164 59.9688 200.836 60.2656C200.508 60.5625 200.188 60.875 199.875 61.2031C199.562 61.5312 199.273 61.8672 199.008 62.2109C198.742 62.5391 198.555 62.8594 198.445 63.1719C198.32 63.4844 198.219 63.8047 198.141 64.1328C198.062 64.4453 197.969 64.7578 197.859 65.0703C197.656 65.7266 197.438 66.3828 197.203 67.0391C196.984 67.6953 196.742 68.3516 196.477 69.0078C196.383 69.2266 196.289 69.4531 196.195 69.6875C196.102 69.9375 195.992 70.1641 195.867 70.3672C195.805 70.4766 195.711 70.5312 195.586 70.5312C195.508 70.5312 195.422 70.4922 195.328 70.4141C195.234 70.3516 195.188 70.2734 195.188 70.1797C195.188 70.1641 195.195 70.1094 195.211 70.0156C195.242 69.9219 195.266 69.8125 195.281 69.6875C195.312 69.5781 195.336 69.4688 195.352 69.3594C195.383 69.2656 195.398 69.2031 195.398 69.1719C195.758 67.5938 196.188 66.0469 196.688 64.5312C197.188 63.0156 197.68 61.4844 198.164 59.9375C198.586 58.5625 199.016 57.2031 199.453 55.8594C199.891 54.5 200.336 53.1406 200.789 51.7812C200.93 51.3281 201.07 50.875 201.211 50.4219C201.367 49.9688 201.523 49.5156 201.68 49.0625C201.758 48.875 201.82 48.6797 201.867 48.4766C201.93 48.2734 202 48.0781 202.078 47.8906C202.125 47.7656 202.219 47.7031 202.359 47.7031C202.438 47.7031 202.523 47.7422 202.617 47.8203C202.711 47.8828 202.758 47.9609 202.758 48.0547L202.734 48.0781C202.234 50.0781 201.695 52.0625 201.117 54.0312C200.555 56 199.977 57.9688 199.383 59.9375C199.711 59.5938 200.125 59.1953 200.625 58.7422C201.125 58.2734 201.656 57.8359 202.219 57.4297C202.781 57.0234 203.352 56.6797 203.93 56.3984C204.523 56.1016 205.07 55.9531 205.57 55.9531C205.68 55.9531 205.789 55.9844 205.898 56.0469C206.008 56.1094 206.109 56.1953 206.203 56.3047C206.297 56.3984 206.375 56.5078 206.438 56.6328C206.5 56.7422 206.531 56.8516 206.531 56.9609C206.531 57.1328 206.523 57.3125 206.508 57.5C206.492 57.6719 206.461 57.8438 206.414 58.0156C206.258 58.6406 206.07 59.2578 205.852 59.8672C205.633 60.4766 205.398 61.0859 205.148 61.6953C204.914 62.2891 204.68 62.8906 204.445 63.5C204.211 64.0938 204 64.7031 203.812 65.3281C203.734 65.5938 203.648 65.8984 203.555 66.2422C203.477 66.5703 203.438 66.875 203.438 67.1562C203.438 67.2969 203.453 67.4375 203.484 67.5781C203.531 67.7188 203.641 67.7891 203.812 67.7891C204.094 67.7891 204.43 67.7031 204.82 67.5312C205.211 67.3594 205.586 67.1719 205.945 66.9688C206.305 66.75 206.617 66.5547 206.883 66.3828C207.148 66.1953 207.312 66.1016 207.375 66.1016C207.484 66.1016 207.57 66.1406 207.633 66.2188C207.695 66.2969 207.727 66.3828 207.727 66.4766ZM220.125 50.8203C220.094 50.9453 220.062 51.0469 220.031 51.125C220.016 51.2031 219.969 51.2891 219.891 51.3828L219.938 51.2656C219.797 51.4531 219.633 51.5469 219.445 51.5469C219.195 51.5469 219.016 51.4375 218.906 51.2188C218.797 50.9844 218.742 50.7578 218.742 50.5391C218.742 50.3828 218.805 50.25 218.93 50.1406C219.07 50.0312 219.211 49.9766 219.352 49.9766C219.43 49.9766 219.5 49.9844 219.562 50C219.625 50.0156 219.688 50.0312 219.75 50.0469C219.953 50.2031 220.047 50.3906 220.031 50.6094C220.047 50.6406 220.062 50.6797 220.078 50.7266C220.094 50.7578 220.109 50.7891 220.125 50.8203ZM219.352 56.7266C219.352 56.9766 219.32 57.2578 219.258 57.5703C219.195 57.8828 219.141 58.1641 219.094 58.4141C218.766 60.3203 218.289 62.1797 217.664 63.9922C217.055 65.7891 216.391 67.5859 215.672 69.3828C215.422 69.9922 215.156 70.6016 214.875 71.2109C214.609 71.8359 214.312 72.4375 213.984 73.0156C213.656 73.6094 213.289 74.1719 212.883 74.7031C212.477 75.2344 212.016 75.7188 211.5 76.1562C210.75 76.7812 209.922 77.0938 209.016 77.0938C208.516 77.0938 208.031 77.0078 207.562 76.8359C207.078 76.6797 206.633 76.4531 206.227 76.1562C205.82 75.875 205.461 75.5312 205.148 75.125C204.836 74.7344 204.586 74.3125 204.398 73.8594C204.398 73.8281 204.398 73.8047 204.398 73.7891C204.383 73.7891 204.375 73.7734 204.375 73.7422C204.375 73.6484 204.422 73.5703 204.516 73.5078C204.594 73.4453 204.68 73.4141 204.773 73.4141C204.883 73.4141 204.969 73.4688 205.031 73.5781C205.109 73.7031 205.188 73.8281 205.266 73.9531C205.328 74.0938 205.414 74.2266 205.523 74.3516C205.898 74.8672 206.383 75.2969 206.977 75.6406C207.57 75.9844 208.195 76.1562 208.852 76.1562C209.602 76.1562 210.258 75.8984 210.82 75.3828C211.258 74.9922 211.664 74.5312 212.039 74C212.398 73.4844 212.734 72.9375 213.047 72.3594C213.344 71.7969 213.617 71.2188 213.867 70.625C214.117 70.0469 214.352 69.4844 214.57 68.9375C215.117 67.5625 215.617 66.1875 216.07 64.8125C216.523 63.4219 216.969 62.0156 217.406 60.5938L218.25 57.8047C218.328 57.6016 218.391 57.3984 218.438 57.1953C218.484 56.9922 218.547 56.7969 218.625 56.6094C218.703 56.4531 218.82 56.375 218.977 56.375C219.07 56.375 219.156 56.4062 219.234 56.4688C219.312 56.5312 219.352 56.6172 219.352 56.7266ZM226.336 50.5391C226.336 50.6328 226.297 50.7422 226.219 50.8672L226.195 50.9375C226.227 51.0312 226.242 51.1016 226.242 51.1484C226.133 51.2266 226.055 51.3125 226.008 51.4062C225.961 51.4844 225.852 51.5234 225.68 51.5234C225.539 51.5234 225.398 51.4688 225.258 51.3594C225.117 51.2344 225.047 51.0859 225.047 50.9141C225.047 50.6328 225.07 50.4062 225.117 50.2344C225.18 50.0469 225.391 49.9531 225.75 49.9531C225.891 49.9531 226.023 50.0156 226.148 50.1406C226.273 50.2656 226.336 50.3984 226.336 50.5391ZM226.172 65.4922C226.172 65.5703 226.148 65.6328 226.102 65.6797C225.805 66.0391 225.516 66.3984 225.234 66.7578C224.969 67.1016 224.68 67.4219 224.367 67.7188C224.07 68.0156 223.734 68.2656 223.359 68.4688C222.984 68.6875 222.555 68.8438 222.07 68.9375C221.648 68.75 221.359 68.5 221.203 68.1875C221.047 67.8906 220.969 67.5234 220.969 67.0859V66.2422C220.969 65.8359 221.008 65.4141 221.086 64.9766C221.18 64.5391 221.273 64.1172 221.367 63.7109C221.508 63.1016 221.664 62.4453 221.836 61.7422C222.023 61.0391 222.234 60.3438 222.469 59.6562C222.719 58.9531 223 58.2812 223.312 57.6406C223.625 56.9844 223.977 56.4141 224.367 55.9297C224.445 55.8516 224.523 55.8125 224.602 55.8125C224.695 55.8125 224.789 55.8516 224.883 55.9297C224.977 55.9922 225.023 56.0781 225.023 56.1875V56.2344C224.758 57.0625 224.453 57.9375 224.109 58.8594C223.781 59.7656 223.461 60.6953 223.148 61.6484C222.852 62.5859 222.594 63.5234 222.375 64.4609C222.172 65.3984 222.07 66.3047 222.07 67.1797C222.07 67.2734 222.07 67.4062 222.07 67.5781C222.086 67.75 222.141 67.8594 222.234 67.9062C222.578 67.8438 222.938 67.6641 223.312 67.3672C223.703 67.0703 224.062 66.7578 224.391 66.4297C224.734 66.1016 225.031 65.8047 225.281 65.5391C225.531 65.2734 225.703 65.1406 225.797 65.1406C225.875 65.1406 225.953 65.1797 226.031 65.2578C226.125 65.3359 226.172 65.4141 226.172 65.4922ZM234.07 66.4766C234.07 66.5547 234.039 66.625 233.977 66.6875C233.727 66.9219 233.422 67.1875 233.062 67.4844C232.703 67.7812 232.32 68.0547 231.914 68.3047C231.523 68.5547 231.117 68.7656 230.695 68.9375C230.289 69.1094 229.914 69.1953 229.57 69.1953C229.07 69.1953 228.68 69.0703 228.398 68.8203C228.117 68.5703 227.898 68.2656 227.742 67.9062C227.602 67.5312 227.508 67.1328 227.461 66.7109C227.43 66.2734 227.414 65.8672 227.414 65.4922C227.414 64.6172 227.5 63.7578 227.672 62.9141C227.844 62.0703 228.031 61.2266 228.234 60.3828C228.625 58.7422 229.094 57.1406 229.641 55.5781C230.203 54.0156 230.906 52.5 231.75 51.0312C231.906 50.75 232.062 50.4688 232.219 50.1875C232.391 49.9062 232.57 49.6406 232.758 49.3906C232.82 49.2969 232.906 49.25 233.016 49.25C233.109 49.25 233.195 49.2812 233.273 49.3438C233.367 49.4062 233.414 49.4922 233.414 49.6016C233.414 49.6484 233.406 49.6875 233.391 49.7188C232.688 51.5312 231.961 53.3359 231.211 55.1328C230.461 56.9297 229.852 58.7734 229.383 60.6641C229.164 61.5078 228.961 62.3672 228.773 63.2422C228.602 64.1016 228.516 64.9766 228.516 65.8672C228.516 66.1016 228.516 66.3594 228.516 66.6406C228.531 66.9062 228.57 67.1562 228.633 67.3906C228.711 67.625 228.828 67.8281 228.984 68C229.156 68.1562 229.398 68.2344 229.711 68.2344C230.055 68.2344 230.438 68.125 230.859 67.9062C231.297 67.6875 231.711 67.4453 232.102 67.1797C232.508 66.8984 232.859 66.6484 233.156 66.4297C233.453 66.2109 233.633 66.1016 233.695 66.1016C233.789 66.1016 233.875 66.1406 233.953 66.2188C234.031 66.2969 234.07 66.3828 234.07 66.4766ZM241.219 66.4766C241.219 66.5547 241.188 66.625 241.125 66.6875C240.875 66.9219 240.57 67.1875 240.211 67.4844C239.852 67.7812 239.469 68.0547 239.062 68.3047C238.672 68.5547 238.266 68.7656 237.844 68.9375C237.438 69.1094 237.062 69.1953 236.719 69.1953C236.219 69.1953 235.828 69.0703 235.547 68.8203C235.266 68.5703 235.047 68.2656 234.891 67.9062C234.75 67.5312 234.656 67.1328 234.609 66.7109C234.578 66.2734 234.562 65.8672 234.562 65.4922C234.562 64.6172 234.648 63.7578 234.82 62.9141C234.992 62.0703 235.18 61.2266 235.383 60.3828C235.773 58.7422 236.242 57.1406 236.789 55.5781C237.352 54.0156 238.055 52.5 238.898 51.0312C239.055 50.75 239.211 50.4688 239.367 50.1875C239.539 49.9062 239.719 49.6406 239.906 49.3906C239.969 49.2969 240.055 49.25 240.164 49.25C240.258 49.25 240.344 49.2812 240.422 49.3438C240.516 49.4062 240.562 49.4922 240.562 49.6016C240.562 49.6484 240.555 49.6875 240.539 49.7188C239.836 51.5312 239.109 53.3359 238.359 55.1328C237.609 56.9297 237 58.7734 236.531 60.6641C236.312 61.5078 236.109 62.3672 235.922 63.2422C235.75 64.1016 235.664 64.9766 235.664 65.8672C235.664 66.1016 235.664 66.3594 235.664 66.6406C235.68 66.9062 235.719 67.1562 235.781 67.3906C235.859 67.625 235.977 67.8281 236.133 68C236.305 68.1562 236.547 68.2344 236.859 68.2344C237.203 68.2344 237.586 68.125 238.008 67.9062C238.445 67.6875 238.859 67.4453 239.25 67.1797C239.656 66.8984 240.008 66.6484 240.305 66.4297C240.602 66.2109 240.781 66.1016 240.844 66.1016C240.938 66.1016 241.023 66.1406 241.102 66.2188C241.18 66.2969 241.219 66.3828 241.219 66.4766Z" fill="black"/>
    <path d="M145.882 35.3126L143.852 35.7406L145.028 34.0279L143.572 33.0309L142.167 35.0779C141.906 34.5419 141.573 34.044 141.177 33.5982L142.236 31.2353C143.589 28.2184 144.292 24.9505 144.299 21.6441C144.297 19.4617 143.789 17.3094 142.813 15.3573C141.837 13.3929 140.33 11.7409 138.464 10.5882C136.402 9.31371 133.999 8.70423 131.579 8.84251C129.159 8.98078 126.841 9.86011 124.938 11.3612C125.177 7.97312 126.634 4.78604 129.04 2.38853L127.793 1.14088C126.515 2.42448 125.465 3.9164 124.688 5.55264C124.033 3.91623 122.905 2.51299 121.446 1.52345C119.988 0.533907 118.267 0.00333744 116.505 0C116.271 0 116.046 0.092962 115.881 0.258435C115.715 0.423908 115.622 0.648338 115.622 0.882352C115.626 3.03629 116.416 5.11471 117.845 6.72666C119.274 8.33862 121.242 9.37301 123.38 9.63529C123.277 10.2309 123.208 10.8319 123.173 11.4353L123.139 11.4079C121.684 10.2466 119.975 9.44502 118.152 9.06832C116.329 8.69162 114.442 8.75044 112.646 9.23999C111.856 7.28568 110.498 5.613 108.748 4.43781C106.998 3.26263 104.936 2.63888 102.828 2.64706H98.4164C98.1824 2.64706 97.9579 2.74002 97.7925 2.90549C97.627 3.07097 97.534 3.2954 97.534 3.52941V7.94117C97.5269 9.64998 97.9365 11.3348 98.7272 12.8496C99.5179 14.3645 100.666 15.6638 102.072 16.635C99.2802 17.7732 97.2755 20.5491 96.2387 24.7526C95.3553 28.4643 95.295 32.3243 96.0623 36.0617C96.3203 37.1627 96.7411 38.2191 97.3108 39.1959L96.2617 39.4094C95.5753 39.5488 94.9653 39.9382 94.55 40.5022C94.1347 41.0661 93.9438 41.7643 94.0144 42.4611C94.085 43.1579 94.412 43.8036 94.932 44.2727C95.452 44.7419 96.1278 45.0011 96.8281 45H135.769C136.631 45.0024 137.486 44.8337 138.282 44.5037C139.079 44.1737 139.802 43.6888 140.41 43.0773L140.906 42.5814C141.825 41.6672 142.45 40.4999 142.703 39.2285L144.537 41.1891L145.825 39.982L143.591 37.5997L146.245 37.0412L145.882 35.3126ZM117.446 1.82735C118.977 2.03668 120.398 2.74156 121.49 3.83428C122.583 4.92699 123.288 6.34744 123.497 7.87853C121.966 7.66906 120.546 6.96413 119.453 5.87144C118.36 4.77875 117.656 3.35839 117.446 1.82735V1.82735ZM122.034 12.7853L123.455 13.9235C123.611 14.0488 123.806 14.1171 124.006 14.1171C124.207 14.1171 124.401 14.0488 124.558 13.9235L125.977 12.7862C127.597 11.4938 129.577 10.7331 131.646 10.608C133.714 10.4829 135.771 10.9996 137.535 12.0873C139.123 13.0685 140.405 14.4744 141.235 16.1462C142.089 17.8533 142.533 19.7355 142.534 21.6441C142.527 24.7015 141.877 27.7232 140.625 30.5126L139.777 32.4053C138.347 31.49 136.616 31.1693 134.953 31.5115L118.622 34.8441C118.79 33.5041 118.716 32.145 118.403 30.8312C117.433 27.1416 115.669 23.7086 113.233 20.7723C111.155 18.3115 108.945 16.8018 106.711 16.2785C106.733 16.2353 106.754 16.1903 106.775 16.1444C107.603 14.4696 108.884 13.0608 110.473 12.0786C112.062 11.0963 113.895 10.5799 115.763 10.5882C118.041 10.5915 120.251 11.3659 122.033 12.7853H122.034ZM99.2987 7.94117V4.41176H102.828C104.569 4.40575 106.273 4.91707 107.723 5.88084C109.173 6.84461 110.304 8.21739 110.972 9.82499C109.86 10.3174 108.832 10.9804 107.925 11.79L106.358 10.2229V6.17647H104.593V8.45823L101.687 5.55264L100.44 6.80029L103.345 9.70588H101.063V11.4706H105.11L106.698 13.0588C106.111 13.763 105.608 14.5329 105.198 15.3529C105.083 15.5779 104.973 15.8206 104.864 16.0756H104.715C103.107 15.4113 101.732 14.2828 100.767 12.834C99.8026 11.3852 99.2913 9.68178 99.2987 7.94117V7.94117ZM97.7846 35.6576C97.0732 32.1922 97.1301 28.6128 97.9514 25.1717C98.652 22.3341 100.204 18.7835 103.62 17.9859C107.037 17.1882 110 19.6765 111.886 21.9088C114.148 24.6301 115.787 27.8134 116.687 31.2353C116.993 32.5452 117.018 33.9049 116.761 35.2253L114.871 35.6109C115.204 34.444 115.265 33.2163 115.05 32.0222C114.834 30.8281 114.348 29.6992 113.628 28.7224C112.908 27.7455 111.974 26.9465 110.897 26.3868C109.821 25.8272 108.63 25.5217 107.417 25.4938C106.204 25.466 105.001 25.7165 103.899 26.2261C102.798 26.7357 101.828 27.491 101.065 28.4338C100.301 29.3766 99.763 30.4819 99.4929 31.6649C99.2227 32.8478 99.2272 34.077 99.5061 35.2579C99.7794 36.4186 100.312 37.5025 101.063 38.4282L99.1664 38.8156C98.5187 37.8551 98.0505 36.7851 97.7846 35.6576V35.6576ZM103.105 38.0109C102.167 37.1791 101.51 36.0762 101.226 34.8547C101 33.8972 101.007 32.8997 101.245 31.9452C101.483 30.9907 101.945 30.1069 102.594 29.3673C103.243 28.6277 104.058 28.0536 104.974 27.693C105.889 27.3324 106.877 27.1956 107.856 27.2939C108.834 27.3923 109.776 27.7231 110.601 28.2586C111.426 28.7942 112.111 29.5191 112.599 30.373C113.088 31.2269 113.365 32.1851 113.408 33.1678C113.452 34.1506 113.26 35.1294 112.848 36.0229L103.105 38.0109ZM139.658 41.3338L139.163 41.8297C138.718 42.2769 138.189 42.6313 137.607 42.8726C137.024 43.1139 136.4 43.2372 135.769 43.2353H96.8281C96.5623 43.2404 96.3042 43.1452 96.1053 42.9688C95.9063 42.7923 95.781 42.5475 95.7544 42.2829C95.7277 42.0183 95.8015 41.7533 95.9612 41.5407C96.121 41.3281 96.3548 41.1834 96.6164 41.1353L108.435 38.7238C108.38 39.2583 108.261 39.7844 108.082 40.2909L109.743 40.8856C110.036 40.0724 110.204 39.2194 110.24 38.3559L114.554 37.4735C114.531 38.1745 114.401 38.8678 114.168 39.5294L115.83 40.1241C116.172 39.157 116.339 38.1371 116.324 37.1117L120.639 36.2294C120.668 37.0932 120.536 37.9548 120.248 38.7697L121.91 39.3626C122.302 38.2441 122.462 37.0572 122.379 35.8747L126.686 34.9923C126.792 36.0115 126.669 37.0414 126.327 38.0073L127.989 38.6003C128.437 37.3309 128.582 35.9747 128.413 34.6394L133.487 33.6044C133.561 34.4073 133.495 35.2168 133.293 35.9973L133.205 36.3335L134.911 36.7809L135 36.4438C135.269 35.402 135.343 34.3194 135.219 33.2506L135.308 33.232C135.625 33.1675 135.948 33.135 136.272 33.135C137.22 33.1363 138.147 33.4186 138.935 33.9463C139.723 34.474 140.337 35.2235 140.7 36.0999C141.062 36.9764 141.156 37.9406 140.971 38.8707C140.786 39.8008 140.329 40.6552 139.658 41.3259L139.658 41.3338Z" fill="#76A5BC"/>
    <path d="M144.624 15.0485C144.852 15.545 145.053 16.0531 145.227 16.5706L146.903 16.0076C146.709 15.432 146.485 14.8669 146.233 14.3144L144.624 15.0485Z" fill="#76A5BC"/>
    <path d="M132.25 5.29411C131.825 5.29411 131.403 5.31205 130.981 5.34793L131.13 7.10558C131.503 7.0747 131.875 7.05881 132.25 7.05881C134.556 7.04821 136.827 7.62988 138.844 8.74812C140.861 9.86636 142.557 11.4837 143.769 13.4453L145.269 12.5135C143.899 10.2964 141.982 8.46827 139.702 7.20419C137.423 5.94012 134.857 5.28243 132.25 5.29411V5.29411Z" fill="#76A5BC"/>
</svg>
