<svg xmlns="http://www.w3.org/2000/svg" viewBox="0 0 64 80" x="0px" y="0px"><g><path d="M60.794,51.021l-2.3.485,1.332-1.941-1.65-1.13-1.592,2.32a7.415,7.415,0,0,0-1.122-1.677l1.2-2.678A26.7,26.7,0,0,0,59,35.53a15.955,15.955,0,0,0-1.684-7.125A13.32,13.32,0,0,0,52.387,23a13.385,13.385,0,0,0-15.329.876,15.941,15.941,0,0,1,4.649-10.169l-1.414-1.414a18.075,18.075,0,0,0-3.519,5A10.008,10.008,0,0,0,27.5,11a1,1,0,0,0-1,1,10.011,10.011,0,0,0,8.792,9.92,18.163,18.163,0,0,0-.234,2.04l-.039-.031a13.411,13.411,0,0,0-11.892-2.457A11.952,11.952,0,0,0,12,14H7a1,1,0,0,0-1,1v5a11.915,11.915,0,0,0,5.143,9.853c-3.164,1.29-5.436,4.436-6.611,9.2a29.624,29.624,0,0,0-.2,12.817,12.885,12.885,0,0,0,1.415,3.552l-1.189.242A3.2,3.2,0,0,0,5.2,62H49.333a7.388,7.388,0,0,0,5.26-2.179l.562-.562a7.39,7.39,0,0,0,2.036-3.8l2.079,2.222,1.46-1.368-2.532-2.7,3.008-.633ZM28.567,13.071a8.018,8.018,0,0,1,6.858,6.858A8.019,8.019,0,0,1,28.567,13.071Zm5.2,12.419,1.61,1.29a1,1,0,0,0,1.25,0l1.608-1.289a11.407,11.407,0,0,1,13.1-.792,11.333,11.333,0,0,1,4.193,4.6A13.947,13.947,0,0,1,57,35.53a24.679,24.679,0,0,1-2.163,10.051l-.962,2.145a7.382,7.382,0,0,0-5.467-1.013L29.9,50.49a12.8,12.8,0,0,0-.248-4.548,29.677,29.677,0,0,0-5.86-11.4c-2.355-2.789-4.859-4.5-7.391-5.093.025-.049.048-.1.072-.152A11.307,11.307,0,0,1,26.66,23,11.429,11.429,0,0,1,33.765,25.49ZM8,20V16h4a9.959,9.959,0,0,1,9.23,6.135,13.242,13.242,0,0,0-3.454,2.227L16,22.586V18H14v2.586l-3.293-3.293L9.293,18.707,12.586,22H10v2h4.586l1.8,1.8a13.455,13.455,0,0,0-1.7,2.6c-.13.255-.255.53-.379.819l-.168,0A9.928,9.928,0,0,1,8,20ZM6.284,51.412a27.43,27.43,0,0,1,.189-11.884c.794-3.216,2.553-7.24,6.425-8.144s7.23,1.916,9.368,4.446A27.478,27.478,0,0,1,27.707,46.4a10.809,10.809,0,0,1,.084,4.522l-2.142.437a9,9,0,1,0-17.414-.4A8.958,8.958,0,0,0,10,54.552l-2.15.439A10.859,10.859,0,0,1,6.284,51.412Zm6.03,2.667a6.853,6.853,0,0,1-2.13-3.577,7,7,0,1,1,13.172,1.324ZM53.74,57.845l-.561.562A5.4,5.4,0,0,1,49.333,60H5.2a1.2,1.2,0,0,1-.24-2.38l13.394-2.733a7.676,7.676,0,0,1-.4,1.776l1.883.674A9.655,9.655,0,0,0,20.4,54.47l4.889-1a7.787,7.787,0,0,1-.437,2.33l1.884.674a9.83,9.83,0,0,0,.559-3.414l4.891-1a7.845,7.845,0,0,1-.444,2.879l1.884.672a9.863,9.863,0,0,0,.532-3.953l4.881-1a7.825,7.825,0,0,1-.407,3.417l1.884.672a9.806,9.806,0,0,0,.48-4.489l5.751-1.173a7.928,7.928,0,0,1-.22,2.712l-.1.381,1.934.507.1-.382a9.906,9.906,0,0,0,.249-3.619l.1-.021a5.484,5.484,0,0,1,1.093-.11,5.438,5.438,0,0,1,3.838,9.283Z" fill="#76a5bc"/><path d="M59.369,28.055a17.772,17.772,0,0,1,.683,1.725l1.9-.638a19.934,19.934,0,0,0-.76-1.919Z" fill="#76a5bc"/><path d="M45.345,17q-.722,0-1.438.061l.169,1.992c.422-.035.844-.053,1.269-.053A15.266,15.266,0,0,1,58.4,26.238l1.7-1.056A17.256,17.256,0,0,0,45.345,17Z" fill="#76a5bc"/></g></svg>