<?xml version="1.0" standalone="no"?>
<!DOCTYPE svg PUBLIC "-//W3C//DTD SVG 20010904//EN"
 "http://www.w3.org/TR/2001/REC-SVG-20010904/DTD/svg10.dtd">
<svg version="1.0" xmlns="http://www.w3.org/2000/svg"
 width="251.000000pt" height="251.000000pt" viewBox="0 0 251.000000 251.000000"
 preserveAspectRatio="xMidYMid meet">
<metadata>
Created by potrace 1.11, written by Peter Selinger 2001-2013
</metadata>
<g transform="translate(0.000000,251.000000) scale(0.100000,-0.100000)"
fill="#000000" stroke="none">
<path d="M1081 2251 c-16 -16 -17 -26 -10 -80 21 -148 140 -281 287 -320 39
-11 42 -14 42 -46 0 -19 -2 -35 -5 -35 -2 0 -25 13 -51 30 -100 63 -246 90
-369 68 l-40 -7 -29 54 c-52 100 -168 189 -289 221 -67 18 -318 19 -335 2 -15
-15 -16 -232 -2 -309 16 -85 63 -172 127 -238 l58 -59 -32 -17 c-90 -49 -182
-190 -217 -335 -49 -203 -35 -485 30 -611 13 -26 13 -27 -23 -34 -24 -4 -49
-20 -70 -42 -28 -29 -33 -42 -33 -83 0 -43 5 -54 34 -83 18 -19 48 -37 66 -41
58 -11 1711 -7 1776 5 102 18 195 93 238 191 l21 48 40 -40 39 -40 28 26 27
27 -45 53 c-49 57 -50 56 28 70 35 6 37 8 32 33 -12 53 -12 53 -56 46 l-41 -7
22 30 c28 39 27 44 -10 66 -34 20 -31 22 -66 -37 -10 -15 -20 -27 -23 -27 -3
0 -14 13 -23 30 -18 29 -17 31 12 97 94 215 125 435 86 602 -59 248 -266 417
-510 415 -105 -1 -178 -20 -259 -69 -54 -33 -56 -33 -56 -11 0 74 57 212 127
307 l45 62 -26 25 c-25 26 -25 26 -46 7 -12 -11 -43 -52 -70 -92 l-48 -72 -25
42 c-57 95 -159 166 -271 186 -33 6 -61 11 -63 11 -2 0 -11 -8 -22 -19z m132
-87 c85 -29 168 -124 191 -217 6 -26 5 -27 -21 -21 -107 26 -203 121 -229 227
-7 31 -3 32 59 11z m-559 -127 c80 -37 141 -89 176 -150 l29 -51 -66 -43 -67
-43 -33 32 c-33 32 -33 33 -33 126 l0 93 -37 -3 c-37 -3 -38 -4 -43 -51 l-5
-48 -60 60 -59 61 -28 -27 -28 -27 62 -63 62 -63 -47 0 -47 0 0 -40 0 -40 88
0 c87 0 89 0 121 -34 l32 -33 -35 -56 c-20 -31 -36 -61 -36 -67 0 -14 -5 -13
-51 11 -58 29 -127 101 -155 163 -31 68 -44 139 -44 244 l0 84 123 -4 c107 -3
129 -7 181 -31z m484 -247 c79 -13 153 -46 217 -97 65 -51 77 -55 107 -35 14
9 53 36 87 59 107 72 211 94 329 69 178 -37 300 -158 348 -348 13 -48 15 -90
11 -178 -6 -124 -27 -214 -79 -338 -27 -65 -33 -73 -52 -67 -11 4 -48 13 -81
21 -60 14 -63 13 -431 -61 -204 -41 -376 -75 -381 -75 -6 0 -13 37 -16 83 -21
287 -268 644 -500 721 -17 6 -17 8 5 47 50 89 166 171 278 195 70 16 82 16
158 4z m-414 -344 c178 -88 374 -397 393 -620 7 -85 -4 -112 -45 -118 l-29 -4
0 80 c0 109 -27 179 -96 250 -29 28 -73 62 -99 75 -173 83 -379 8 -466 -169
-23 -48 -27 -67 -27 -146 0 -83 3 -96 33 -154 18 -35 31 -64 30 -65 -2 -1 -19
-5 -39 -9 -34 -6 -36 -5 -56 36 -33 69 -42 106 -51 216 -39 459 179 762 452
628z m93 -409 c41 -22 98 -78 118 -117 25 -47 34 -120 24 -175 -5 -27 -13 -53
-17 -57 -5 -5 -101 -27 -215 -50 -204 -40 -207 -41 -228 -22 -59 53 -84 173
-55 261 22 66 78 130 140 160 43 20 62 23 126 20 44 -2 88 -11 107 -20z m1266
-267 c74 -51 110 -145 87 -229 -14 -52 -89 -137 -140 -159 -31 -13 -148 -15
-925 -13 -489 2 -893 5 -897 7 -5 3 -8 19 -8 35 0 22 6 32 23 38 13 5 129 30
258 56 129 25 241 48 251 51 14 4 15 0 8 -30 -7 -34 -6 -36 27 -47 42 -13 49
-6 59 57 l6 42 81 16 c111 22 106 23 96 -21 -12 -52 -12 -50 15 -57 13 -3 31
-8 39 -12 11 -4 17 9 26 57 6 35 16 66 22 70 7 4 39 12 73 19 34 6 70 14 80
17 18 5 19 1 12 -51 l-6 -57 32 -14 c18 -7 37 -10 41 -6 4 4 11 39 14 78 l6
70 89 17 c50 9 93 14 96 11 3 -3 1 -32 -4 -65 l-10 -59 30 -11 c16 -5 33 -10
37 -10 12 0 29 70 29 122 0 53 -11 47 118 73 110 22 105 25 97 -44 l-7 -59 31
-7 c17 -3 35 -4 40 -1 5 4 13 38 17 77 l7 71 57 -4 c40 -3 69 -12 93 -28z"/>
<path d="M1450 1559 c-13 -5 -39 -21 -57 -35 l-33 -25 0 30 0 31 -60 0 -60 0
0 -285 0 -285 60 0 60 0 0 204 0 203 28 28 c33 33 62 45 108 45 92 0 104 -33
104 -285 l0 -195 61 0 60 0 -3 218 c-3 201 -5 220 -25 262 -32 64 -80 94 -157
97 -33 2 -72 -2 -86 -8z"/>
<path d="M1754 1187 c-3 -8 -4 -54 -2 -103 2 -71 6 -89 18 -89 12 0 16 19 18
103 2 87 0 102 -13 102 -9 0 -18 -6 -21 -13z"/>
<path d="M1826 1108 c-23 -32 -20 -65 9 -93 25 -25 41 -30 69 -19 26 10 20 37
-7 31 -25 -7 -41 1 -50 25 -9 26 16 52 46 46 21 -4 27 -1 27 13 0 29 -74 27
-94 -3z"/>
<path d="M1740 1991 l0 -41 68 0 c166 0 353 -93 447 -220 40 -55 52 -59 85
-32 l23 19 -32 46 c-65 95 -211 200 -331 238 -38 13 -106 23 -162 26 l-98 6 0
-42z"/>
<path d="M2363 1618 c-26 -12 -27 -16 -13 -52 10 -28 24 -31 64 -16 24 9 25
11 12 42 -16 36 -30 42 -63 26z"/>
</g>
</svg>
